<svg width="11" height="11" viewBox="0 0 11 11" fill="none" xmlns="http://www.w3.org/2000/svg">
<path d="M2.52455 0.500004C2.50973 0.499867 2.49511 0.50342 2.482 0.510342C2.4689 0.517264 2.45772 0.527338 2.44948 0.539656C2.44124 0.551973 2.43619 0.566148 2.43479 0.580902C2.4334 0.595656 2.43569 0.610527 2.44147 0.624173L2.49284 0.745439L3.40177 2.8648C3.40795 2.87922 3.41781 2.89175 3.43037 2.90115C3.44293 2.91054 3.45774 2.91646 3.47331 2.91832C3.48888 2.92018 3.50467 2.9179 3.51908 2.91172C3.53349 2.90554 3.54603 2.89568 3.55542 2.88312L5.23304 0.642933C5.243 0.629661 5.24906 0.613879 5.25055 0.597357C5.25204 0.580834 5.2489 0.564223 5.24148 0.549384C5.23406 0.534546 5.22265 0.522067 5.20854 0.513345C5.19443 0.504623 5.17817 0.500004 5.16158 0.500004H2.52455Z" fill="url(#paint0_linear)"/>
<path d="M9.18435 1.08197L8.26246 3.23415C8.25666 3.24774 8.25432 3.26255 8.25565 3.27726C8.25698 3.29197 8.26194 3.30613 8.27009 3.31845C8.27823 3.33078 8.2893 3.34089 8.30232 3.34789C8.31533 3.35489 8.32987 3.35855 8.34464 3.35854H10.6002C10.6162 3.35855 10.6318 3.3543 10.6455 3.34623C10.6593 3.33816 10.6706 3.32657 10.6783 3.31265C10.6861 3.29873 10.69 3.283 10.6896 3.26707C10.6892 3.25115 10.6846 3.23562 10.6762 3.22209L9.34224 1.07013C9.33362 1.05627 9.32137 1.04504 9.30682 1.03766C9.29227 1.03027 9.27598 1.02701 9.25971 1.02823C9.24344 1.02945 9.22781 1.03511 9.21453 1.04458C9.20124 1.05405 9.1908 1.06698 9.18435 1.08197Z" fill="url(#paint1_linear)"/>
<path d="M1.70449 1.07104L0.371015 3.22211C0.362613 3.23564 0.357982 3.25117 0.357601 3.2671C0.35722 3.28302 0.361103 3.29875 0.368847 3.31267C0.376592 3.32659 0.387916 3.33818 0.401648 3.34625C0.415379 3.35432 0.431018 3.35857 0.446945 3.35857H2.70253C2.71732 3.35855 2.73186 3.35486 2.74487 3.34784C2.75788 3.34082 2.76894 3.33067 2.77706 3.31832C2.78519 3.30597 2.79012 3.2918 2.79141 3.27707C2.79271 3.26235 2.79033 3.24753 2.78449 3.23395L1.86082 1.08287C1.85421 1.06826 1.8438 1.0557 1.83066 1.0465C1.81753 1.0373 1.80216 1.03181 1.78617 1.0306C1.77018 1.02939 1.75415 1.0325 1.73978 1.03962C1.72541 1.04673 1.71322 1.05758 1.70449 1.07104Z" fill="url(#paint2_linear)"/>
<path d="M8.58897 0.500009H5.78734C5.77926 0.499957 5.77132 0.502167 5.76443 0.506391C5.75753 0.510614 5.75196 0.516682 5.74833 0.523908C5.74471 0.531134 5.74318 0.53923 5.74392 0.547281C5.74465 0.555331 5.74763 0.563015 5.7525 0.569464L7.53733 2.94699C7.54188 2.9531 7.54797 2.9579 7.55497 2.9609C7.56197 2.96391 7.56964 2.96501 7.57721 2.96411C7.58477 2.9632 7.59196 2.96032 7.59806 2.95574C7.60415 2.95117 7.60893 2.94507 7.61192 2.93806L8.55168 0.745668L8.62761 0.559414C8.63028 0.553021 8.63137 0.546074 8.63077 0.53917C8.63018 0.532265 8.62792 0.525607 8.62418 0.519768C8.62045 0.513928 8.61536 0.50908 8.60934 0.505639C8.60333 0.502197 8.5959 0.500266 8.58897 0.500009Z" fill="url(#paint3_linear)"/>
<path d="M5.14373 9.79033L3.14652 4.12925C3.14066 4.11281 3.12984 4.09859 3.11557 4.08855C3.10129 4.07852 3.08425 4.07315 3.0668 4.07319H0.380189C0.364626 4.07315 0.349364 4.07748 0.336141 4.08568C0.322917 4.09389 0.312266 4.10565 0.305399 4.11962C0.298532 4.13358 0.295726 4.1492 0.297302 4.16468C0.298877 4.18016 0.30477 4.19489 0.314308 4.20719L5.13814 10.4561C5.15447 10.4772 5.17777 10.4919 5.20389 10.4975C5.23002 10.5031 5.25728 10.4993 5.28085 10.4867C5.30455 10.4742 5.32298 10.4536 5.33278 10.4287C5.34257 10.4038 5.34309 10.3761 5.33422 10.3509L5.14373 9.79033Z" fill="url(#paint4_linear)"/>
<path d="M10.6666 4.07319H7.97996C7.96259 4.07319 7.94566 4.07858 7.9315 4.08862C7.91733 4.09867 7.90664 4.11286 7.9009 4.12925L5.70784 10.3413C5.69863 10.3674 5.69901 10.3959 5.70891 10.4217C5.71882 10.4475 5.73759 10.469 5.76188 10.4822C5.78618 10.4953 5.81435 10.4995 5.84139 10.4938C5.86842 10.4881 5.89256 10.473 5.9095 10.4511L10.7325 4.20719C10.742 4.19489 10.7479 4.18016 10.7495 4.16468C10.751 4.1492 10.7482 4.13358 10.7414 4.11962C10.7345 4.10565 10.7238 4.09389 10.7106 4.08568C10.6974 4.07748 10.6821 4.07315 10.6666 4.07319Z" fill="url(#paint5_linear)"/>
<path d="M5.59483 1.54805L6.84545 3.21562C6.8554 3.2289 6.86146 3.24468 6.86295 3.2612C6.86444 3.27772 6.8613 3.29433 6.85388 3.30917C6.84646 3.32401 6.83506 3.33649 6.82095 3.34521C6.80684 3.35393 6.79057 3.35855 6.77398 3.35855H4.27275C4.25616 3.35855 4.23989 3.35393 4.22578 3.34521C4.21167 3.33649 4.20026 3.32401 4.19285 3.30917C4.18543 3.29433 4.18229 3.27772 4.18378 3.2612C4.18527 3.24468 4.19133 3.2289 4.20128 3.21562L5.4519 1.54805C5.46022 1.53696 5.47101 1.52795 5.48342 1.52175C5.49582 1.51555 5.5095 1.51232 5.52336 1.51232C5.53723 1.51232 5.55091 1.51555 5.56331 1.52175C5.57572 1.52795 5.58651 1.53696 5.59483 1.54805ZM5.4385 8.47807L3.92659 4.19223C3.92184 4.17876 3.92039 4.16435 3.92236 4.15021C3.92433 4.13606 3.92966 4.1226 3.93791 4.11094C3.94615 4.09928 3.95708 4.08977 3.96976 4.0832C3.98244 4.07663 3.99651 4.0732 4.01078 4.07319H7.03594C7.05022 4.0732 7.06429 4.07663 7.07697 4.0832C7.08965 4.08977 7.10057 4.09928 7.10882 4.11094C7.11707 4.1226 7.1224 4.13606 7.12437 4.15021C7.12634 4.16435 7.12489 4.17876 7.12014 4.19223L5.60756 8.47807C5.60139 8.49547 5.58998 8.51052 5.57491 8.52118C5.55983 8.53183 5.54182 8.53754 5.52336 8.53754C5.50491 8.53754 5.4869 8.53183 5.47182 8.52118C5.45675 8.51052 5.44467 8.49547 5.4385 8.47807Z" fill="url(#paint6_linear)"/>
<defs>
<linearGradient id="paint0_linear" x1="0.0734169" y1="0.530446" x2="11.5037" y2="1.45896" gradientUnits="userSpaceOnUse">
<stop stop-color="#6C01C3"/>
<stop offset="1" stop-color="#901CEE"/>
</linearGradient>
<linearGradient id="paint1_linear" x1="0.0734169" y1="0.530446" x2="11.5037" y2="1.45896" gradientUnits="userSpaceOnUse">
<stop stop-color="#6C01C3"/>
<stop offset="1" stop-color="#901CEE"/>
</linearGradient>
<linearGradient id="paint2_linear" x1="0.0734169" y1="0.530446" x2="11.5037" y2="1.45896" gradientUnits="userSpaceOnUse">
<stop stop-color="#6C01C3"/>
<stop offset="1" stop-color="#901CEE"/>
</linearGradient>
<linearGradient id="paint3_linear" x1="0.0734169" y1="0.530446" x2="11.5037" y2="1.45896" gradientUnits="userSpaceOnUse">
<stop stop-color="#6C01C3"/>
<stop offset="1" stop-color="#901CEE"/>
</linearGradient>
<linearGradient id="paint4_linear" x1="0.0734169" y1="0.530446" x2="11.5037" y2="1.45896" gradientUnits="userSpaceOnUse">
<stop stop-color="#6C01C3"/>
<stop offset="1" stop-color="#901CEE"/>
</linearGradient>
<linearGradient id="paint5_linear" x1="0.0734169" y1="0.530446" x2="11.5037" y2="1.45896" gradientUnits="userSpaceOnUse">
<stop stop-color="#6C01C3"/>
<stop offset="1" stop-color="#901CEE"/>
</linearGradient>
<linearGradient id="paint6_linear" x1="0.0734169" y1="0.530446" x2="11.5037" y2="1.45896" gradientUnits="userSpaceOnUse">
<stop stop-color="#6C01C3"/>
<stop offset="1" stop-color="#901CEE"/>
</linearGradient>
</defs>
</svg>
