<svg width="30" height="30" viewBox="0 0 30 30" fill="none" xmlns="http://www.w3.org/2000/svg">
<circle cx="15" cy="15" r="15" fill="#E2E8F0"/>
<path d="M9.93307 23H8.86641C8.65423 23 8.45075 22.9157 8.30072 22.7657C8.15069 22.6157 8.06641 22.4122 8.06641 22.2V17.4C8.06641 17.1878 8.15069 16.9843 8.30072 16.8343C8.45075 16.6843 8.65423 16.6 8.86641 16.6H9.93307C10.1452 16.6 10.3487 16.6843 10.4988 16.8343C10.6488 16.9843 10.7331 17.1878 10.7331 17.4V22.2C10.7331 22.4122 10.6488 22.6157 10.4988 22.7657C10.3487 22.9157 10.1452 23 9.93307 23Z" fill="url(#paint0_linear)"/>
<path d="M17.3997 23H16.3331C16.1209 23 15.9174 22.9157 15.7674 22.7657C15.6174 22.6157 15.5331 22.4122 15.5331 22.2V14.2C15.5331 13.9878 15.6174 13.7843 15.7674 13.6343C15.9174 13.4843 16.1209 13.4 16.3331 13.4H17.3997C17.6119 13.4 17.8154 13.4843 17.9654 13.6343C18.1155 13.7843 18.1997 13.9878 18.1997 14.2V22.2C18.1997 22.4122 18.1155 22.6157 17.9654 22.7657C17.8154 22.9157 17.6119 23 17.3997 23Z" fill="url(#paint1_linear)"/>
<path d="M21.1331 23H20.0664C19.8542 23 19.6508 22.9157 19.5007 22.7657C19.3507 22.6157 19.2664 22.4122 19.2664 22.2V10.4667C19.2664 10.2545 19.3507 10.051 19.5007 9.90098C19.6508 9.75095 19.8542 9.66667 20.0664 9.66667H21.1331C21.3452 9.66667 21.5487 9.75095 21.6988 9.90098C21.8488 10.051 21.9331 10.2545 21.9331 10.4667V22.2C21.9331 22.4122 21.8488 22.6157 21.6988 22.7657C21.5487 22.9157 21.3452 23 21.1331 23Z" fill="url(#paint2_linear)"/>
<path d="M13.6664 23H12.5997C12.3876 23 12.1841 22.9157 12.0341 22.7657C11.884 22.6157 11.7997 22.4122 11.7997 22.2V7.8C11.7997 7.58783 11.884 7.38434 12.0341 7.23431C12.1841 7.08429 12.3876 7 12.5997 7H13.6664C13.8786 7 14.0821 7.08429 14.2321 7.23431C14.3821 7.38434 14.4664 7.58783 14.4664 7.8V22.2C14.4664 22.4122 14.3821 22.6157 14.2321 22.7657C14.0821 22.9157 13.8786 23 13.6664 23Z" fill="url(#paint3_linear)"/>
<defs>
<linearGradient id="paint0_linear" x1="7.76997" y1="7.04871" x2="22.9642" y2="8.07206" gradientUnits="userSpaceOnUse">
<stop stop-color="#6C01C3"/>
<stop offset="1" stop-color="#901CEE"/>
</linearGradient>
<linearGradient id="paint1_linear" x1="7.76997" y1="7.04871" x2="22.9642" y2="8.07206" gradientUnits="userSpaceOnUse">
<stop stop-color="#6C01C3"/>
<stop offset="1" stop-color="#901CEE"/>
</linearGradient>
<linearGradient id="paint2_linear" x1="7.76997" y1="7.04871" x2="22.9642" y2="8.07206" gradientUnits="userSpaceOnUse">
<stop stop-color="#6C01C3"/>
<stop offset="1" stop-color="#901CEE"/>
</linearGradient>
<linearGradient id="paint3_linear" x1="7.76997" y1="7.04871" x2="22.9642" y2="8.07206" gradientUnits="userSpaceOnUse">
<stop stop-color="#6C01C3"/>
<stop offset="1" stop-color="#901CEE"/>
</linearGradient>
</defs>
</svg>
