<svg width="30" height="30" viewBox="0 0 30 30" fill="none" xmlns="http://www.w3.org/2000/svg">
<circle cx="15" cy="15" r="15" fill="#E2E8F0"/>
<path d="M24.4544 14.4091C24.1702 14.4111 23.8888 14.4644 23.6236 14.5663L20.7896 12.2464C20.8593 11.9935 20.9089 11.7311 20.9089 11.4545C20.9089 9.81655 19.5924 8.5 17.9544 8.5C16.3164 8.5 14.9998 9.81655 14.9998 11.4545C14.9998 11.9225 15.118 12.3586 15.3095 12.751L11.8715 16.8141C11.7339 16.7883 11.5944 16.7745 11.4544 16.7727C11.2428 16.7727 11.0431 16.8082 10.8493 16.8602L7.82028 13.8312C7.87346 13.6385 7.90891 13.4388 7.90891 13.2273C7.90891 11.9178 6.85473 10.8636 5.54528 10.8636C4.23582 10.8636 3.18164 11.9178 3.18164 13.2273C3.18164 14.5367 4.23582 15.5909 5.54528 15.5909C5.75682 15.5909 5.95655 15.5555 6.15037 15.5035L9.17937 18.5325C9.12256 18.7288 9.09274 18.932 9.09073 19.1364C9.09073 20.4458 10.1449 21.5 11.4544 21.5C12.7638 21.5 13.818 20.4458 13.818 19.1364C13.818 18.8563 13.7613 18.5927 13.6726 18.3434L17.1153 14.2755C17.3836 14.3535 17.6613 14.4091 17.9544 14.4091C18.4208 14.4065 18.8798 14.2927 19.2934 14.077L22.1285 16.3969C22.1063 16.521 22.0937 16.6467 22.0907 16.7727C22.0907 18.0822 23.1449 19.1364 24.4544 19.1364C25.7638 19.1364 26.818 18.0822 26.818 16.7727C26.818 15.4633 25.7638 14.4091 24.4544 14.4091Z" fill="url(#paint0_linear)"/>
<defs>
<linearGradient id="paint0_linear" x1="2.67636" y1="8.53958" x2="28.1838" y2="12.1437" gradientUnits="userSpaceOnUse">
<stop stop-color="#6C01C3"/>
<stop offset="1" stop-color="#901CEE"/>
</linearGradient>
</defs>
</svg>
