<svg width="31" height="30" viewBox="0 0 31 30" fill="none" xmlns="http://www.w3.org/2000/svg">
<circle cx="15.5" cy="15" r="15" fill="#E2E8F0"/>
<path d="M22.1613 11.6641C21.9441 11.1428 21.6309 10.6703 21.2392 10.2733C20.8472 9.875 20.3851 9.55851 19.8779 9.341C19.352 9.11456 18.788 8.99865 18.2185 9.00001C17.4195 9.00001 16.6401 9.22678 15.9627 9.65511C15.8006 9.75758 15.6467 9.87012 15.5008 9.99274C15.355 9.87012 15.201 9.75758 15.0389 9.65511C14.3616 9.22678 13.5821 9.00001 12.7831 9.00001C12.2078 9.00001 11.6504 9.11423 11.1237 9.341C10.6148 9.55937 10.1562 9.87348 9.76241 10.2733C9.37023 10.6699 9.05695 11.1424 8.84032 11.6641C8.61506 12.2067 8.5 12.7828 8.5 13.3758C8.5 13.9351 8.6102 14.518 8.82897 15.1109C9.0121 15.6065 9.27463 16.1205 9.61008 16.6395C10.1416 17.4609 10.8725 18.3176 11.78 19.186C13.2839 20.6255 14.7732 21.62 14.8364 21.6603L15.2204 21.9156C15.3906 22.0281 15.6094 22.0281 15.7795 21.9156L16.1636 21.6603C16.2268 21.6183 17.7145 20.6255 19.22 19.186C20.1275 18.3176 20.8584 17.4609 21.3899 16.6395C21.7254 16.1205 21.9895 15.6065 22.171 15.1109C22.3898 14.518 22.5 13.9351 22.5 13.3758C22.5016 12.7828 22.3865 12.2067 22.1613 11.6641ZM15.5008 20.5869C15.5008 20.5869 9.73162 16.7554 9.73162 13.3758C9.73162 11.6641 11.0978 10.2766 12.7831 10.2766C13.9678 10.2766 14.9952 10.962 15.5008 11.9631C16.0064 10.962 17.0338 10.2766 18.2185 10.2766C19.9039 10.2766 21.27 11.6641 21.27 13.3758C21.27 16.7554 15.5008 20.5869 15.5008 20.5869Z" fill="url(#paint0_linear)"/>
<defs>
<linearGradient id="paint0_linear" x1="8.20072" y1="9.03958" x2="23.5034" y2="10.3203" gradientUnits="userSpaceOnUse">
<stop stop-color="#6C01C3"/>
<stop offset="1" stop-color="#901CEE"/>
</linearGradient>
</defs>
</svg>
