<svg width="43" height="43" viewBox="0 0 43 43" fill="none" xmlns="http://www.w3.org/2000/svg">
<circle cx="21.5" cy="21.6738" r="20.5" fill="white" stroke="url(#paint0_linear)"/>
<path d="M21.4978 17.5691C19.2264 17.5691 17.3932 19.4023 17.3932 21.6738C17.3932 23.9454 19.2264 25.7786 21.4978 25.7786C23.7693 25.7786 25.6025 23.9454 25.6025 21.6738C25.6025 19.4023 23.7693 17.5691 21.4978 17.5691ZM21.4978 24.3416C20.0289 24.3416 18.8301 23.1428 18.8301 21.6738C18.8301 20.2048 20.0289 19.006 21.4978 19.006C22.9668 19.006 24.1656 20.2048 24.1656 21.6738C24.1656 23.1428 22.9668 24.3416 21.4978 24.3416ZM25.7707 16.4443C25.2403 16.4443 24.812 16.8726 24.812 17.4029C24.812 17.9333 25.2403 18.3616 25.7707 18.3616C26.301 18.3616 26.7293 17.9353 26.7293 17.4029C26.7294 17.277 26.7048 17.1523 26.6566 17.0359C26.6085 16.9195 26.5379 16.8138 26.4489 16.7247C26.3598 16.6357 26.2541 16.5651 26.1377 16.5169C26.0213 16.4688 25.8966 16.4441 25.7707 16.4443ZM29.4991 21.6738C29.4991 20.5691 29.5091 19.4743 29.4471 18.3716C29.385 17.0907 29.0928 15.954 28.1562 15.0173C27.2176 14.0787 26.0829 13.7885 24.802 13.7265C23.6973 13.6644 22.6026 13.6744 21.4999 13.6744C20.3951 13.6744 19.3004 13.6644 18.1977 13.7265C16.9168 13.7885 15.7801 14.0807 14.8435 15.0173C13.9049 15.956 13.6147 17.0907 13.5526 18.3716C13.4906 19.4763 13.5006 20.5711 13.5006 21.6738C13.5006 22.7766 13.4906 23.8733 13.5526 24.9761C13.6147 26.2569 13.9069 27.3937 14.8435 28.3303C15.7821 29.269 16.9168 29.5592 18.1977 29.6212C19.3024 29.6832 20.3971 29.6732 21.4999 29.6732C22.6046 29.6732 23.6993 29.6832 24.802 29.6212C26.0829 29.5592 27.2196 29.267 28.1562 28.3303C29.0948 27.3917 29.385 26.2569 29.4471 24.9761C29.5111 23.8733 29.4991 22.7786 29.4991 21.6738ZM27.738 26.393C27.5919 26.7573 27.4157 27.0294 27.1336 27.3096C26.8514 27.5918 26.5812 27.7679 26.217 27.914C25.1643 28.3323 22.6646 28.2383 21.4978 28.2383C20.3311 28.2383 17.8294 28.3323 16.7767 27.916C16.4125 27.7699 16.1403 27.5938 15.8601 27.3116C15.578 27.0294 15.4018 26.7593 15.2557 26.395C14.8395 25.3403 14.9335 22.8406 14.9335 21.6738C14.9335 20.507 14.8395 18.0053 15.2557 16.9526C15.4018 16.5884 15.578 16.3162 15.8601 16.036C16.1423 15.7558 16.4125 15.5777 16.7767 15.4316C17.8294 15.0153 20.3311 15.1094 21.4978 15.1094C22.6646 15.1094 25.1663 15.0153 26.219 15.4316C26.5832 15.5777 26.8554 15.7538 27.1356 16.036C27.4177 16.3182 27.5939 16.5884 27.74 16.9526C28.1562 18.0053 28.0622 20.507 28.0622 21.6738C28.0622 22.8406 28.1562 25.3403 27.738 26.393Z" fill="url(#paint1_linear)"/>
<defs>
<linearGradient id="paint0_linear" x1="-0.39785" y1="0.8017" x2="45.5544" y2="4.37278" gradientUnits="userSpaceOnUse">
<stop stop-color="#6C01C3"/>
<stop offset="1" stop-color="#901CEE"/>
</linearGradient>
<linearGradient id="paint1_linear" x1="13.158" y1="13.7225" x2="30.6636" y2="15.083" gradientUnits="userSpaceOnUse">
<stop stop-color="#6C01C3"/>
<stop offset="1" stop-color="#901CEE"/>
</linearGradient>
</defs>
</svg>
