<svg width="43" height="43" viewBox="0 0 43 43" fill="none" xmlns="http://www.w3.org/2000/svg">
<circle cx="21.5" cy="21.6738" r="20.5" fill="white" stroke="url(#paint0_linear)"/>
<path d="M15.423 17.5264C16.485 17.5264 17.346 16.6639 17.346 15.6001C17.346 14.5362 16.485 13.6738 15.423 13.6738C14.361 13.6738 13.5 14.5362 13.5 15.6001C13.5 16.6639 14.361 17.5264 15.423 17.5264Z" fill="url(#paint1_linear)"/>
<path d="M19.1617 18.986V29.6729H22.4742V24.388C22.4742 22.9935 22.7361 21.643 24.4623 21.643C26.1647 21.643 26.1857 23.2374 26.1857 24.4761V29.6738H29.5V23.8131C29.5 20.9343 28.8813 18.7219 25.5222 18.7219C23.9094 18.7219 22.8284 19.6085 22.3863 20.4475H22.3415V18.986H19.1617ZM13.7637 18.986H17.0814V29.6729H13.7637V18.986Z" fill="url(#paint2_linear)"/>
<defs>
<linearGradient id="paint0_linear" x1="-0.39785" y1="0.8017" x2="45.5544" y2="4.37278" gradientUnits="userSpaceOnUse">
<stop stop-color="#6C01C3"/>
<stop offset="1" stop-color="#901CEE"/>
</linearGradient>
<linearGradient id="paint1_linear" x1="13.158" y1="13.7225" x2="30.6636" y2="15.083" gradientUnits="userSpaceOnUse">
<stop stop-color="#6C01C3"/>
<stop offset="1" stop-color="#901CEE"/>
</linearGradient>
<linearGradient id="paint2_linear" x1="13.158" y1="13.7225" x2="30.6636" y2="15.083" gradientUnits="userSpaceOnUse">
<stop stop-color="#6C01C3"/>
<stop offset="1" stop-color="#901CEE"/>
</linearGradient>
</defs>
</svg>
