<svg width="43" height="43" viewBox="0 0 43 43" fill="none" xmlns="http://www.w3.org/2000/svg">
<circle cx="21.5" cy="21.6738" r="20.5" fill="white" stroke="url(#paint0_linear)"/>
<path d="M31.5 15.5717C30.7645 15.8924 29.9744 16.1091 29.1438 16.2071C30.0008 15.7024 30.642 14.9081 30.9477 13.9725C30.1425 14.4431 29.2612 14.7744 28.3422 14.952C27.7242 14.3026 26.9057 13.8722 26.0136 13.7276C25.1216 13.5829 24.206 13.7322 23.409 14.1521C22.6119 14.572 21.9781 15.2392 21.6058 16.0499C21.2336 16.8607 21.1437 17.7697 21.3503 18.6359C19.7187 18.5553 18.1226 18.1379 16.6655 17.411C15.2085 16.6841 13.923 15.6637 12.8926 14.4163C12.5403 15.0144 12.3377 15.7078 12.3377 16.4463C12.3373 17.1112 12.5036 17.7658 12.822 18.3522C13.1404 18.9386 13.6009 19.4386 14.1627 19.8078C13.5112 19.7874 12.874 19.6142 12.3042 19.3025V19.3545C12.3041 20.2869 12.6319 21.1907 13.2319 21.9124C13.8318 22.6341 14.6671 23.1294 15.5958 23.3141C14.9914 23.475 14.3577 23.4987 13.7426 23.3834C14.0046 24.1857 14.5151 24.8873 15.2024 25.39C15.8898 25.8927 16.7197 26.1712 17.5759 26.1867C16.1224 27.3095 14.3273 27.9186 12.4795 27.9159C12.1521 27.916 11.8251 27.8972 11.5 27.8596C13.3757 29.0464 15.5591 29.6763 17.7891 29.6738C25.3378 29.6738 29.4644 23.5212 29.4644 18.1851C29.4644 18.0118 29.46 17.8367 29.4521 17.6633C30.2548 17.0921 30.9476 16.3847 31.4982 15.5743L31.5 15.5717Z" fill="url(#paint1_linear)"/>
<defs>
<linearGradient id="paint0_linear" x1="-0.39785" y1="0.8017" x2="45.5544" y2="4.37278" gradientUnits="userSpaceOnUse">
<stop stop-color="#6C01C3"/>
<stop offset="1" stop-color="#901CEE"/>
</linearGradient>
<linearGradient id="paint1_linear" x1="11.0725" y1="13.7225" x2="32.8808" y2="15.841" gradientUnits="userSpaceOnUse">
<stop stop-color="#6C01C3"/>
<stop offset="1" stop-color="#901CEE"/>
</linearGradient>
</defs>
</svg>
