<svg width="20" height="20" viewBox="0 0 20 20" fill="none" xmlns="http://www.w3.org/2000/svg">
<mask id="path-1-outside-1_303:19441" maskUnits="userSpaceOnUse" x="0" y="0.949219" width="20" height="19" fill="black">
<rect fill="white" y="0.949219" width="20" height="19"/>
<path d="M15.1 11.2492C14.8816 11.2492 14.6686 11.2717 14.4601 11.3065C14.8105 10.7986 15.0946 10.2382 15.3019 9.63462C15.7252 9.44022 16 9.02172 16 8.54922V7.34922C16 7.06032 15.892 6.78042 15.7 6.56172V4.96602C15.7168 4.80102 15.7828 3.81882 15.0724 3.00852C14.4562 2.30562 13.4563 1.94922 12.1 1.94922C10.7437 1.94922 9.7438 2.30562 9.1276 3.00822C8.6971 3.49932 8.5522 4.05252 8.5084 4.44972C7.9942 4.18392 7.3882 4.04922 6.7 4.04922C3.5833 4.04922 3.4018 6.70572 3.4 6.74922V8.12292C3.2056 8.33472 3.1 8.57922 3.1 8.82192V9.85812C3.1 10.1818 3.2449 10.4836 3.4933 10.6876C3.7408 11.6206 4.3495 12.3256 4.5865 12.5731V13.396C4.5865 13.6321 4.4581 13.8487 4.2352 13.9705L2.2393 15.2224C1.4749 15.6394 1 16.4395 1 17.3101V18.4492H5.2H5.8H13.0312C13.6318 18.8272 14.3398 19.0492 15.1 19.0492C17.2504 19.0492 19 17.2996 19 15.1492C19 12.9988 17.2504 11.2492 15.1 11.2492ZM5.2 17.1778V17.8492H1.6V17.3101C1.6 16.6591 1.9552 16.0609 2.5423 15.7402L4.5379 14.4883C4.9378 14.2702 5.1862 13.852 5.1862 13.396V12.3187L5.0908 12.2296C5.083 12.2224 4.2859 11.4694 4.0504 10.4431L4.0231 10.3243L3.9205 10.2583C3.7825 10.1689 3.7 10.0192 3.7 9.85812V8.82192C3.7 8.71392 3.7735 8.58552 3.9013 8.46972L4 8.38062L3.9994 6.76662C4.0048 6.68052 4.1611 4.64922 6.7 4.64922C7.4179 4.64922 8.0224 4.81512 8.5 5.14242V6.56172C8.308 6.78042 8.2 7.06032 8.2 7.34922V8.54922C8.2 8.64042 8.2105 8.73012 8.2303 8.81712C8.2384 8.85192 8.2546 8.88372 8.2657 8.91732C8.2822 8.96772 8.2954 9.01962 8.3185 9.06732C8.3188 9.06792 8.3191 9.06822 8.3194 9.06882C8.3962 9.22722 8.5081 9.36882 8.6491 9.48192C8.6506 9.48762 8.6524 9.49272 8.6539 9.49812C8.6719 9.56682 8.6908 9.63522 8.7112 9.70212L8.7355 9.78042C8.7397 9.79422 8.7448 9.80832 8.7493 9.82212C8.7598 9.85452 8.77 9.88692 8.7808 9.91872C8.7988 9.97122 8.8177 10.0252 8.8396 10.0846C8.8489 10.1095 8.8591 10.1314 8.8687 10.1557C8.8933 10.2184 8.9179 10.279 8.9437 10.339C8.95 10.3534 8.9554 10.369 8.9617 10.3831L8.9785 10.4209C8.9863 10.4383 8.9944 10.4539 9.0022 10.471C9.0316 10.5352 9.0604 10.5973 9.0904 10.6576C9.0952 10.6672 9.0997 10.6777 9.1045 10.6873C9.1234 10.7248 9.1423 10.7602 9.1612 10.7962C9.1936 10.858 9.2254 10.9162 9.2572 10.9726C9.2728 11.0002 9.2881 11.0272 9.3034 11.0533C9.3466 11.1271 9.3877 11.1949 9.4276 11.2579C9.4363 11.2714 9.4447 11.2855 9.4531 11.2984C9.5257 11.4109 9.5887 11.5021 9.6409 11.5732C9.6547 11.5921 9.6667 11.6083 9.6784 11.6242C9.685 11.6329 9.694 11.6455 9.6997 11.6533V12.646C9.6997 12.9364 9.5413 13.2028 9.2866 13.342L8.4928 13.7749L8.2981 13.8811L6.6103 14.8018C5.7403 15.2764 5.2 16.1866 5.2 17.1778ZM5.8 17.8492V17.1778C5.8 16.4065 6.2206 15.6976 6.8977 15.3286L9.574 13.8688C10.0219 13.6243 10.3 13.1554 10.3 12.6457V11.4403V11.44L10.2418 11.3704L10.2304 11.3569C10.2298 11.356 10.2112 11.3335 10.1809 11.2939C10.1791 11.2915 10.1773 11.2891 10.1752 11.2867C10.1593 11.266 10.1407 11.2408 10.1194 11.2114C10.1191 11.2108 10.1188 11.2105 10.1185 11.2099C10.0738 11.1478 10.0177 11.0671 9.9553 10.9699C9.9538 10.9678 9.9526 10.9654 9.9511 10.9633C9.9217 10.9171 9.8905 10.8673 9.8587 10.8142C9.8563 10.8103 9.8539 10.8064 9.8515 10.8022C9.7837 10.6885 9.7117 10.5598 9.64 10.4173L9.6397 10.4167C9.6016 10.3405 9.5635 10.2598 9.5263 10.1761C9.5212 10.1644 9.5158 10.153 9.5107 10.1413C9.4942 10.1038 9.4777 10.0645 9.4609 10.024C9.4549 10.0093 9.4489 9.99402 9.4429 9.97902C9.4273 9.93972 9.4114 9.90012 9.3946 9.85482C9.364 9.77322 9.3352 9.68802 9.3076 9.60012L9.2911 9.54672C9.2893 9.54072 9.2872 9.53472 9.2854 9.52842C9.2572 9.43362 9.2302 9.33672 9.2074 9.23712L9.1801 9.11832L9.0778 9.05232C8.9038 8.94012 8.8 8.75202 8.8 8.54922V7.34922C8.8 7.18092 8.8714 7.02402 9.001 6.90672L9.1 6.81762V4.94922V4.84302L9.0919 4.83672C9.0817 4.62012 9.0946 3.95622 9.5788 3.40392C10.0759 2.83662 10.9243 2.54922 12.1 2.54922C13.2715 2.54922 14.1181 2.83452 14.6158 3.39762C15.1999 4.05792 15.1033 4.90272 15.1027 4.90992L15.1 6.81762L15.199 6.90702C15.3286 7.02402 15.4 7.18092 15.4 7.34922V8.54922C15.4 8.81112 15.2284 9.04032 14.9734 9.11892L14.824 9.16482L14.776 9.31332C14.5753 9.93762 14.2894 10.5142 13.9258 11.0272C13.8367 11.1535 13.75 11.2654 13.6747 11.3509L13.6 11.4361V11.5501C13.5244 11.5816 13.4518 11.6188 13.3789 11.6548C13.3603 11.6641 13.3414 11.6725 13.3231 11.6818C13.2574 11.7157 13.1935 11.7517 13.1302 11.7889C13.0969 11.8084 13.0642 11.8285 13.0318 11.8486C12.9742 11.8849 12.9169 11.9215 12.8614 11.9608C12.8254 11.986 12.7909 12.0133 12.7558 12.04C12.6691 12.1054 12.5854 12.1744 12.5047 12.2467C12.466 12.2815 12.4267 12.3154 12.3892 12.3517C12.3463 12.3934 12.3052 12.4369 12.2644 12.4804C12.2299 12.517 12.196 12.5539 12.163 12.592C12.1234 12.6376 12.0841 12.6835 12.0466 12.7306C12.0157 12.7696 11.9869 12.8098 11.9575 12.8497C11.8951 12.9349 11.8363 13.0225 11.7805 13.1128C11.7544 13.1551 11.7274 13.1968 11.7031 13.24C11.6728 13.2934 11.6455 13.3483 11.6179 13.4032C11.5954 13.4476 11.5738 13.4923 11.5528 13.5379C11.5279 13.5925 11.5036 13.6471 11.4814 13.7029C11.4592 13.7578 11.4397 13.8139 11.4202 13.8697C11.3974 13.9348 11.3755 14.0002 11.3563 14.0671C11.3323 14.1499 11.3104 14.2333 11.2918 14.3179C11.2825 14.3608 11.275 14.4043 11.2672 14.4478C11.2531 14.5243 11.2414 14.6014 11.2318 14.6791C11.227 14.7178 11.2222 14.7565 11.2186 14.7958C11.2072 14.9128 11.2 15.0304 11.2 15.1492C11.2 15.2797 11.2069 15.4093 11.2198 15.5374C11.2246 15.586 11.2342 15.6331 11.2408 15.6811C11.2516 15.76 11.2612 15.8389 11.2768 15.9166C11.2873 15.9691 11.3023 16.0201 11.3149 16.072C11.3323 16.1437 11.3485 16.2157 11.3701 16.2862C11.3848 16.3339 11.4031 16.3801 11.4196 16.4272C11.4448 16.5001 11.4697 16.5733 11.4994 16.6444C11.5159 16.6843 11.5354 16.7224 11.5534 16.7614C11.5879 16.8376 11.623 16.9135 11.6623 16.9873C11.6797 17.0194 11.6992 17.0503 11.7175 17.0821C11.7619 17.1598 11.8069 17.2366 11.8567 17.311C11.875 17.3383 11.8951 17.3641 11.914 17.3911C11.9668 17.4661 12.0208 17.5405 12.0793 17.6119C12.1009 17.6383 12.1243 17.6629 12.1465 17.6887C12.193 17.7427 12.2374 17.7979 12.2869 17.8495H5.8V17.8492ZM15.1 18.4492C14.4226 18.4492 13.7923 18.2434 13.2679 17.8918C13.1656 17.8234 13.069 17.749 12.9763 17.671C12.9439 17.6434 12.9133 17.614 12.8821 17.5852C12.823 17.5315 12.7657 17.4763 12.7111 17.419C12.676 17.3821 12.6421 17.3446 12.6088 17.3065C12.5596 17.2498 12.5134 17.1913 12.4684 17.1316C12.4396 17.0935 12.4099 17.0566 12.3826 17.0173C12.3163 16.921 12.2539 16.822 12.1981 16.7194C12.1852 16.6954 12.175 16.6702 12.1627 16.6459C12.1189 16.5601 12.0781 16.4731 12.0418 16.3837C12.0262 16.3447 12.0127 16.3048 11.9983 16.2652C11.9701 16.1866 11.9443 16.1068 11.9218 16.0261C11.9104 15.9847 11.8993 15.943 11.8894 15.901C11.8693 15.8155 11.8537 15.7288 11.8405 15.6415C11.8348 15.604 11.8276 15.5671 11.8234 15.5293C11.8093 15.4036 11.8 15.277 11.8 15.1492C11.8 15.0475 11.8063 14.947 11.8153 14.8477C11.8186 14.8123 11.8234 14.7772 11.8279 14.7421C11.8357 14.6791 11.8453 14.617 11.8564 14.5549C11.8642 14.5132 11.872 14.4715 11.8813 14.4301C11.8933 14.3761 11.9077 14.3233 11.9224 14.2705C11.9347 14.2267 11.9455 14.1823 11.9596 14.1388C11.9854 14.0587 12.0145 13.9798 12.0463 13.9024C12.0679 13.8499 12.0925 13.7989 12.1168 13.7479C12.1327 13.714 12.1483 13.6804 12.1654 13.6471C12.1915 13.5961 12.2194 13.546 12.2482 13.4965C12.2662 13.4656 12.2848 13.4353 12.3037 13.4053C12.3346 13.3558 12.3658 13.3063 12.3994 13.2586C12.4165 13.2343 12.4351 13.2112 12.4528 13.1872C12.523 13.0927 12.598 13.0021 12.6778 12.9157C12.6961 12.8959 12.7135 12.8752 12.7324 12.8557C12.7735 12.8134 12.8167 12.7729 12.8602 12.7327C12.8851 12.7096 12.9103 12.6862 12.9361 12.6637C12.9811 12.6244 13.0273 12.5863 13.0744 12.5494C13.0984 12.5308 13.123 12.5128 13.1473 12.4948C13.1995 12.4564 13.252 12.418 13.3069 12.3826C13.3108 12.3802 13.3147 12.3778 13.3186 12.3754C13.5241 12.2434 13.7464 12.133 13.9828 12.0478C14.0026 12.0406 14.0221 12.0328 14.0422 12.0259L14.1307 11.9947C14.4373 11.9005 14.7628 11.8492 15.1 11.8492C16.9195 11.8492 18.4 13.3297 18.4 15.1492C18.4 16.9687 16.9195 18.4492 15.1 18.4492Z"/>
</mask>
<path d="M15.1 11.2492C14.8816 11.2492 14.6686 11.2717 14.4601 11.3065C14.8105 10.7986 15.0946 10.2382 15.3019 9.63462C15.7252 9.44022 16 9.02172 16 8.54922V7.34922C16 7.06032 15.892 6.78042 15.7 6.56172V4.96602C15.7168 4.80102 15.7828 3.81882 15.0724 3.00852C14.4562 2.30562 13.4563 1.94922 12.1 1.94922C10.7437 1.94922 9.7438 2.30562 9.1276 3.00822C8.6971 3.49932 8.5522 4.05252 8.5084 4.44972C7.9942 4.18392 7.3882 4.04922 6.7 4.04922C3.5833 4.04922 3.4018 6.70572 3.4 6.74922V8.12292C3.2056 8.33472 3.1 8.57922 3.1 8.82192V9.85812C3.1 10.1818 3.2449 10.4836 3.4933 10.6876C3.7408 11.6206 4.3495 12.3256 4.5865 12.5731V13.396C4.5865 13.6321 4.4581 13.8487 4.2352 13.9705L2.2393 15.2224C1.4749 15.6394 1 16.4395 1 17.3101V18.4492H5.2H5.8H13.0312C13.6318 18.8272 14.3398 19.0492 15.1 19.0492C17.2504 19.0492 19 17.2996 19 15.1492C19 12.9988 17.2504 11.2492 15.1 11.2492ZM5.2 17.1778V17.8492H1.6V17.3101C1.6 16.6591 1.9552 16.0609 2.5423 15.7402L4.5379 14.4883C4.9378 14.2702 5.1862 13.852 5.1862 13.396V12.3187L5.0908 12.2296C5.083 12.2224 4.2859 11.4694 4.0504 10.4431L4.0231 10.3243L3.9205 10.2583C3.7825 10.1689 3.7 10.0192 3.7 9.85812V8.82192C3.7 8.71392 3.7735 8.58552 3.9013 8.46972L4 8.38062L3.9994 6.76662C4.0048 6.68052 4.1611 4.64922 6.7 4.64922C7.4179 4.64922 8.0224 4.81512 8.5 5.14242V6.56172C8.308 6.78042 8.2 7.06032 8.2 7.34922V8.54922C8.2 8.64042 8.2105 8.73012 8.2303 8.81712C8.2384 8.85192 8.2546 8.88372 8.2657 8.91732C8.2822 8.96772 8.2954 9.01962 8.3185 9.06732C8.3188 9.06792 8.3191 9.06822 8.3194 9.06882C8.3962 9.22722 8.5081 9.36882 8.6491 9.48192C8.6506 9.48762 8.6524 9.49272 8.6539 9.49812C8.6719 9.56682 8.6908 9.63522 8.7112 9.70212L8.7355 9.78042C8.7397 9.79422 8.7448 9.80832 8.7493 9.82212C8.7598 9.85452 8.77 9.88692 8.7808 9.91872C8.7988 9.97122 8.8177 10.0252 8.8396 10.0846C8.8489 10.1095 8.8591 10.1314 8.8687 10.1557C8.8933 10.2184 8.9179 10.279 8.9437 10.339C8.95 10.3534 8.9554 10.369 8.9617 10.3831L8.9785 10.4209C8.9863 10.4383 8.9944 10.4539 9.0022 10.471C9.0316 10.5352 9.0604 10.5973 9.0904 10.6576C9.0952 10.6672 9.0997 10.6777 9.1045 10.6873C9.1234 10.7248 9.1423 10.7602 9.1612 10.7962C9.1936 10.858 9.2254 10.9162 9.2572 10.9726C9.2728 11.0002 9.2881 11.0272 9.3034 11.0533C9.3466 11.1271 9.3877 11.1949 9.4276 11.2579C9.4363 11.2714 9.4447 11.2855 9.4531 11.2984C9.5257 11.4109 9.5887 11.5021 9.6409 11.5732C9.6547 11.5921 9.6667 11.6083 9.6784 11.6242C9.685 11.6329 9.694 11.6455 9.6997 11.6533V12.646C9.6997 12.9364 9.5413 13.2028 9.2866 13.342L8.4928 13.7749L8.2981 13.8811L6.6103 14.8018C5.7403 15.2764 5.2 16.1866 5.2 17.1778ZM5.8 17.8492V17.1778C5.8 16.4065 6.2206 15.6976 6.8977 15.3286L9.574 13.8688C10.0219 13.6243 10.3 13.1554 10.3 12.6457V11.4403V11.44L10.2418 11.3704L10.2304 11.3569C10.2298 11.356 10.2112 11.3335 10.1809 11.2939C10.1791 11.2915 10.1773 11.2891 10.1752 11.2867C10.1593 11.266 10.1407 11.2408 10.1194 11.2114C10.1191 11.2108 10.1188 11.2105 10.1185 11.2099C10.0738 11.1478 10.0177 11.0671 9.9553 10.9699C9.9538 10.9678 9.9526 10.9654 9.9511 10.9633C9.9217 10.9171 9.8905 10.8673 9.8587 10.8142C9.8563 10.8103 9.8539 10.8064 9.8515 10.8022C9.7837 10.6885 9.7117 10.5598 9.64 10.4173L9.6397 10.4167C9.6016 10.3405 9.5635 10.2598 9.5263 10.1761C9.5212 10.1644 9.5158 10.153 9.5107 10.1413C9.4942 10.1038 9.4777 10.0645 9.4609 10.024C9.4549 10.0093 9.4489 9.99402 9.4429 9.97902C9.4273 9.93972 9.4114 9.90012 9.3946 9.85482C9.364 9.77322 9.3352 9.68802 9.3076 9.60012L9.2911 9.54672C9.2893 9.54072 9.2872 9.53472 9.2854 9.52842C9.2572 9.43362 9.2302 9.33672 9.2074 9.23712L9.1801 9.11832L9.0778 9.05232C8.9038 8.94012 8.8 8.75202 8.8 8.54922V7.34922C8.8 7.18092 8.8714 7.02402 9.001 6.90672L9.1 6.81762V4.94922V4.84302L9.0919 4.83672C9.0817 4.62012 9.0946 3.95622 9.5788 3.40392C10.0759 2.83662 10.9243 2.54922 12.1 2.54922C13.2715 2.54922 14.1181 2.83452 14.6158 3.39762C15.1999 4.05792 15.1033 4.90272 15.1027 4.90992L15.1 6.81762L15.199 6.90702C15.3286 7.02402 15.4 7.18092 15.4 7.34922V8.54922C15.4 8.81112 15.2284 9.04032 14.9734 9.11892L14.824 9.16482L14.776 9.31332C14.5753 9.93762 14.2894 10.5142 13.9258 11.0272C13.8367 11.1535 13.75 11.2654 13.6747 11.3509L13.6 11.4361V11.5501C13.5244 11.5816 13.4518 11.6188 13.3789 11.6548C13.3603 11.6641 13.3414 11.6725 13.3231 11.6818C13.2574 11.7157 13.1935 11.7517 13.1302 11.7889C13.0969 11.8084 13.0642 11.8285 13.0318 11.8486C12.9742 11.8849 12.9169 11.9215 12.8614 11.9608C12.8254 11.986 12.7909 12.0133 12.7558 12.04C12.6691 12.1054 12.5854 12.1744 12.5047 12.2467C12.466 12.2815 12.4267 12.3154 12.3892 12.3517C12.3463 12.3934 12.3052 12.4369 12.2644 12.4804C12.2299 12.517 12.196 12.5539 12.163 12.592C12.1234 12.6376 12.0841 12.6835 12.0466 12.7306C12.0157 12.7696 11.9869 12.8098 11.9575 12.8497C11.8951 12.9349 11.8363 13.0225 11.7805 13.1128C11.7544 13.1551 11.7274 13.1968 11.7031 13.24C11.6728 13.2934 11.6455 13.3483 11.6179 13.4032C11.5954 13.4476 11.5738 13.4923 11.5528 13.5379C11.5279 13.5925 11.5036 13.6471 11.4814 13.7029C11.4592 13.7578 11.4397 13.8139 11.4202 13.8697C11.3974 13.9348 11.3755 14.0002 11.3563 14.0671C11.3323 14.1499 11.3104 14.2333 11.2918 14.3179C11.2825 14.3608 11.275 14.4043 11.2672 14.4478C11.2531 14.5243 11.2414 14.6014 11.2318 14.6791C11.227 14.7178 11.2222 14.7565 11.2186 14.7958C11.2072 14.9128 11.2 15.0304 11.2 15.1492C11.2 15.2797 11.2069 15.4093 11.2198 15.5374C11.2246 15.586 11.2342 15.6331 11.2408 15.6811C11.2516 15.76 11.2612 15.8389 11.2768 15.9166C11.2873 15.9691 11.3023 16.0201 11.3149 16.072C11.3323 16.1437 11.3485 16.2157 11.3701 16.2862C11.3848 16.3339 11.4031 16.3801 11.4196 16.4272C11.4448 16.5001 11.4697 16.5733 11.4994 16.6444C11.5159 16.6843 11.5354 16.7224 11.5534 16.7614C11.5879 16.8376 11.623 16.9135 11.6623 16.9873C11.6797 17.0194 11.6992 17.0503 11.7175 17.0821C11.7619 17.1598 11.8069 17.2366 11.8567 17.311C11.875 17.3383 11.8951 17.3641 11.914 17.3911C11.9668 17.4661 12.0208 17.5405 12.0793 17.6119C12.1009 17.6383 12.1243 17.6629 12.1465 17.6887C12.193 17.7427 12.2374 17.7979 12.2869 17.8495H5.8V17.8492ZM15.1 18.4492C14.4226 18.4492 13.7923 18.2434 13.2679 17.8918C13.1656 17.8234 13.069 17.749 12.9763 17.671C12.9439 17.6434 12.9133 17.614 12.8821 17.5852C12.823 17.5315 12.7657 17.4763 12.7111 17.419C12.676 17.3821 12.6421 17.3446 12.6088 17.3065C12.5596 17.2498 12.5134 17.1913 12.4684 17.1316C12.4396 17.0935 12.4099 17.0566 12.3826 17.0173C12.3163 16.921 12.2539 16.822 12.1981 16.7194C12.1852 16.6954 12.175 16.6702 12.1627 16.6459C12.1189 16.5601 12.0781 16.4731 12.0418 16.3837C12.0262 16.3447 12.0127 16.3048 11.9983 16.2652C11.9701 16.1866 11.9443 16.1068 11.9218 16.0261C11.9104 15.9847 11.8993 15.943 11.8894 15.901C11.8693 15.8155 11.8537 15.7288 11.8405 15.6415C11.8348 15.604 11.8276 15.5671 11.8234 15.5293C11.8093 15.4036 11.8 15.277 11.8 15.1492C11.8 15.0475 11.8063 14.947 11.8153 14.8477C11.8186 14.8123 11.8234 14.7772 11.8279 14.7421C11.8357 14.6791 11.8453 14.617 11.8564 14.5549C11.8642 14.5132 11.872 14.4715 11.8813 14.4301C11.8933 14.3761 11.9077 14.3233 11.9224 14.2705C11.9347 14.2267 11.9455 14.1823 11.9596 14.1388C11.9854 14.0587 12.0145 13.9798 12.0463 13.9024C12.0679 13.8499 12.0925 13.7989 12.1168 13.7479C12.1327 13.714 12.1483 13.6804 12.1654 13.6471C12.1915 13.5961 12.2194 13.546 12.2482 13.4965C12.2662 13.4656 12.2848 13.4353 12.3037 13.4053C12.3346 13.3558 12.3658 13.3063 12.3994 13.2586C12.4165 13.2343 12.4351 13.2112 12.4528 13.1872C12.523 13.0927 12.598 13.0021 12.6778 12.9157C12.6961 12.8959 12.7135 12.8752 12.7324 12.8557C12.7735 12.8134 12.8167 12.7729 12.8602 12.7327C12.8851 12.7096 12.9103 12.6862 12.9361 12.6637C12.9811 12.6244 13.0273 12.5863 13.0744 12.5494C13.0984 12.5308 13.123 12.5128 13.1473 12.4948C13.1995 12.4564 13.252 12.418 13.3069 12.3826C13.3108 12.3802 13.3147 12.3778 13.3186 12.3754C13.5241 12.2434 13.7464 12.133 13.9828 12.0478C14.0026 12.0406 14.0221 12.0328 14.0422 12.0259L14.1307 11.9947C14.4373 11.9005 14.7628 11.8492 15.1 11.8492C16.9195 11.8492 18.4 13.3297 18.4 15.1492C18.4 16.9687 16.9195 18.4492 15.1 18.4492Z" fill="url(#paint0_linear_303:19441)"/>
<path d="M15.1 11.2492C14.8816 11.2492 14.6686 11.2717 14.4601 11.3065C14.8105 10.7986 15.0946 10.2382 15.3019 9.63462C15.7252 9.44022 16 9.02172 16 8.54922V7.34922C16 7.06032 15.892 6.78042 15.7 6.56172V4.96602C15.7168 4.80102 15.7828 3.81882 15.0724 3.00852C14.4562 2.30562 13.4563 1.94922 12.1 1.94922C10.7437 1.94922 9.7438 2.30562 9.1276 3.00822C8.6971 3.49932 8.5522 4.05252 8.5084 4.44972C7.9942 4.18392 7.3882 4.04922 6.7 4.04922C3.5833 4.04922 3.4018 6.70572 3.4 6.74922V8.12292C3.2056 8.33472 3.1 8.57922 3.1 8.82192V9.85812C3.1 10.1818 3.2449 10.4836 3.4933 10.6876C3.7408 11.6206 4.3495 12.3256 4.5865 12.5731V13.396C4.5865 13.6321 4.4581 13.8487 4.2352 13.9705L2.2393 15.2224C1.4749 15.6394 1 16.4395 1 17.3101V18.4492H5.2H5.8H13.0312C13.6318 18.8272 14.3398 19.0492 15.1 19.0492C17.2504 19.0492 19 17.2996 19 15.1492C19 12.9988 17.2504 11.2492 15.1 11.2492ZM5.2 17.1778V17.8492H1.6V17.3101C1.6 16.6591 1.9552 16.0609 2.5423 15.7402L4.5379 14.4883C4.9378 14.2702 5.1862 13.852 5.1862 13.396V12.3187L5.0908 12.2296C5.083 12.2224 4.2859 11.4694 4.0504 10.4431L4.0231 10.3243L3.9205 10.2583C3.7825 10.1689 3.7 10.0192 3.7 9.85812V8.82192C3.7 8.71392 3.7735 8.58552 3.9013 8.46972L4 8.38062L3.9994 6.76662C4.0048 6.68052 4.1611 4.64922 6.7 4.64922C7.4179 4.64922 8.0224 4.81512 8.5 5.14242V6.56172C8.308 6.78042 8.2 7.06032 8.2 7.34922V8.54922C8.2 8.64042 8.2105 8.73012 8.2303 8.81712C8.2384 8.85192 8.2546 8.88372 8.2657 8.91732C8.2822 8.96772 8.2954 9.01962 8.3185 9.06732C8.3188 9.06792 8.3191 9.06822 8.3194 9.06882C8.3962 9.22722 8.5081 9.36882 8.6491 9.48192C8.6506 9.48762 8.6524 9.49272 8.6539 9.49812C8.6719 9.56682 8.6908 9.63522 8.7112 9.70212L8.7355 9.78042C8.7397 9.79422 8.7448 9.80832 8.7493 9.82212C8.7598 9.85452 8.77 9.88692 8.7808 9.91872C8.7988 9.97122 8.8177 10.0252 8.8396 10.0846C8.8489 10.1095 8.8591 10.1314 8.8687 10.1557C8.8933 10.2184 8.9179 10.279 8.9437 10.339C8.95 10.3534 8.9554 10.369 8.9617 10.3831L8.9785 10.4209C8.9863 10.4383 8.9944 10.4539 9.0022 10.471C9.0316 10.5352 9.0604 10.5973 9.0904 10.6576C9.0952 10.6672 9.0997 10.6777 9.1045 10.6873C9.1234 10.7248 9.1423 10.7602 9.1612 10.7962C9.1936 10.858 9.2254 10.9162 9.2572 10.9726C9.2728 11.0002 9.2881 11.0272 9.3034 11.0533C9.3466 11.1271 9.3877 11.1949 9.4276 11.2579C9.4363 11.2714 9.4447 11.2855 9.4531 11.2984C9.5257 11.4109 9.5887 11.5021 9.6409 11.5732C9.6547 11.5921 9.6667 11.6083 9.6784 11.6242C9.685 11.6329 9.694 11.6455 9.6997 11.6533V12.646C9.6997 12.9364 9.5413 13.2028 9.2866 13.342L8.4928 13.7749L8.2981 13.8811L6.6103 14.8018C5.7403 15.2764 5.2 16.1866 5.2 17.1778ZM5.8 17.8492V17.1778C5.8 16.4065 6.2206 15.6976 6.8977 15.3286L9.574 13.8688C10.0219 13.6243 10.3 13.1554 10.3 12.6457V11.4403V11.44L10.2418 11.3704L10.2304 11.3569C10.2298 11.356 10.2112 11.3335 10.1809 11.2939C10.1791 11.2915 10.1773 11.2891 10.1752 11.2867C10.1593 11.266 10.1407 11.2408 10.1194 11.2114C10.1191 11.2108 10.1188 11.2105 10.1185 11.2099C10.0738 11.1478 10.0177 11.0671 9.9553 10.9699C9.9538 10.9678 9.9526 10.9654 9.9511 10.9633C9.9217 10.9171 9.8905 10.8673 9.8587 10.8142C9.8563 10.8103 9.8539 10.8064 9.8515 10.8022C9.7837 10.6885 9.7117 10.5598 9.64 10.4173L9.6397 10.4167C9.6016 10.3405 9.5635 10.2598 9.5263 10.1761C9.5212 10.1644 9.5158 10.153 9.5107 10.1413C9.4942 10.1038 9.4777 10.0645 9.4609 10.024C9.4549 10.0093 9.4489 9.99402 9.4429 9.97902C9.4273 9.93972 9.4114 9.90012 9.3946 9.85482C9.364 9.77322 9.3352 9.68802 9.3076 9.60012L9.2911 9.54672C9.2893 9.54072 9.2872 9.53472 9.2854 9.52842C9.2572 9.43362 9.2302 9.33672 9.2074 9.23712L9.1801 9.11832L9.0778 9.05232C8.9038 8.94012 8.8 8.75202 8.8 8.54922V7.34922C8.8 7.18092 8.8714 7.02402 9.001 6.90672L9.1 6.81762V4.94922V4.84302L9.0919 4.83672C9.0817 4.62012 9.0946 3.95622 9.5788 3.40392C10.0759 2.83662 10.9243 2.54922 12.1 2.54922C13.2715 2.54922 14.1181 2.83452 14.6158 3.39762C15.1999 4.05792 15.1033 4.90272 15.1027 4.90992L15.1 6.81762L15.199 6.90702C15.3286 7.02402 15.4 7.18092 15.4 7.34922V8.54922C15.4 8.81112 15.2284 9.04032 14.9734 9.11892L14.824 9.16482L14.776 9.31332C14.5753 9.93762 14.2894 10.5142 13.9258 11.0272C13.8367 11.1535 13.75 11.2654 13.6747 11.3509L13.6 11.4361V11.5501C13.5244 11.5816 13.4518 11.6188 13.3789 11.6548C13.3603 11.6641 13.3414 11.6725 13.3231 11.6818C13.2574 11.7157 13.1935 11.7517 13.1302 11.7889C13.0969 11.8084 13.0642 11.8285 13.0318 11.8486C12.9742 11.8849 12.9169 11.9215 12.8614 11.9608C12.8254 11.986 12.7909 12.0133 12.7558 12.04C12.6691 12.1054 12.5854 12.1744 12.5047 12.2467C12.466 12.2815 12.4267 12.3154 12.3892 12.3517C12.3463 12.3934 12.3052 12.4369 12.2644 12.4804C12.2299 12.517 12.196 12.5539 12.163 12.592C12.1234 12.6376 12.0841 12.6835 12.0466 12.7306C12.0157 12.7696 11.9869 12.8098 11.9575 12.8497C11.8951 12.9349 11.8363 13.0225 11.7805 13.1128C11.7544 13.1551 11.7274 13.1968 11.7031 13.24C11.6728 13.2934 11.6455 13.3483 11.6179 13.4032C11.5954 13.4476 11.5738 13.4923 11.5528 13.5379C11.5279 13.5925 11.5036 13.6471 11.4814 13.7029C11.4592 13.7578 11.4397 13.8139 11.4202 13.8697C11.3974 13.9348 11.3755 14.0002 11.3563 14.0671C11.3323 14.1499 11.3104 14.2333 11.2918 14.3179C11.2825 14.3608 11.275 14.4043 11.2672 14.4478C11.2531 14.5243 11.2414 14.6014 11.2318 14.6791C11.227 14.7178 11.2222 14.7565 11.2186 14.7958C11.2072 14.9128 11.2 15.0304 11.2 15.1492C11.2 15.2797 11.2069 15.4093 11.2198 15.5374C11.2246 15.586 11.2342 15.6331 11.2408 15.6811C11.2516 15.76 11.2612 15.8389 11.2768 15.9166C11.2873 15.9691 11.3023 16.0201 11.3149 16.072C11.3323 16.1437 11.3485 16.2157 11.3701 16.2862C11.3848 16.3339 11.4031 16.3801 11.4196 16.4272C11.4448 16.5001 11.4697 16.5733 11.4994 16.6444C11.5159 16.6843 11.5354 16.7224 11.5534 16.7614C11.5879 16.8376 11.623 16.9135 11.6623 16.9873C11.6797 17.0194 11.6992 17.0503 11.7175 17.0821C11.7619 17.1598 11.8069 17.2366 11.8567 17.311C11.875 17.3383 11.8951 17.3641 11.914 17.3911C11.9668 17.4661 12.0208 17.5405 12.0793 17.6119C12.1009 17.6383 12.1243 17.6629 12.1465 17.6887C12.193 17.7427 12.2374 17.7979 12.2869 17.8495H5.8V17.8492ZM15.1 18.4492C14.4226 18.4492 13.7923 18.2434 13.2679 17.8918C13.1656 17.8234 13.069 17.749 12.9763 17.671C12.9439 17.6434 12.9133 17.614 12.8821 17.5852C12.823 17.5315 12.7657 17.4763 12.7111 17.419C12.676 17.3821 12.6421 17.3446 12.6088 17.3065C12.5596 17.2498 12.5134 17.1913 12.4684 17.1316C12.4396 17.0935 12.4099 17.0566 12.3826 17.0173C12.3163 16.921 12.2539 16.822 12.1981 16.7194C12.1852 16.6954 12.175 16.6702 12.1627 16.6459C12.1189 16.5601 12.0781 16.4731 12.0418 16.3837C12.0262 16.3447 12.0127 16.3048 11.9983 16.2652C11.9701 16.1866 11.9443 16.1068 11.9218 16.0261C11.9104 15.9847 11.8993 15.943 11.8894 15.901C11.8693 15.8155 11.8537 15.7288 11.8405 15.6415C11.8348 15.604 11.8276 15.5671 11.8234 15.5293C11.8093 15.4036 11.8 15.277 11.8 15.1492C11.8 15.0475 11.8063 14.947 11.8153 14.8477C11.8186 14.8123 11.8234 14.7772 11.8279 14.7421C11.8357 14.6791 11.8453 14.617 11.8564 14.5549C11.8642 14.5132 11.872 14.4715 11.8813 14.4301C11.8933 14.3761 11.9077 14.3233 11.9224 14.2705C11.9347 14.2267 11.9455 14.1823 11.9596 14.1388C11.9854 14.0587 12.0145 13.9798 12.0463 13.9024C12.0679 13.8499 12.0925 13.7989 12.1168 13.7479C12.1327 13.714 12.1483 13.6804 12.1654 13.6471C12.1915 13.5961 12.2194 13.546 12.2482 13.4965C12.2662 13.4656 12.2848 13.4353 12.3037 13.4053C12.3346 13.3558 12.3658 13.3063 12.3994 13.2586C12.4165 13.2343 12.4351 13.2112 12.4528 13.1872C12.523 13.0927 12.598 13.0021 12.6778 12.9157C12.6961 12.8959 12.7135 12.8752 12.7324 12.8557C12.7735 12.8134 12.8167 12.7729 12.8602 12.7327C12.8851 12.7096 12.9103 12.6862 12.9361 12.6637C12.9811 12.6244 13.0273 12.5863 13.0744 12.5494C13.0984 12.5308 13.123 12.5128 13.1473 12.4948C13.1995 12.4564 13.252 12.418 13.3069 12.3826C13.3108 12.3802 13.3147 12.3778 13.3186 12.3754C13.5241 12.2434 13.7464 12.133 13.9828 12.0478C14.0026 12.0406 14.0221 12.0328 14.0422 12.0259L14.1307 11.9947C14.4373 11.9005 14.7628 11.8492 15.1 11.8492C16.9195 11.8492 18.4 13.3297 18.4 15.1492C18.4 16.9687 16.9195 18.4492 15.1 18.4492Z" stroke="url(#paint1_linear_303:19441)" stroke-width="0.4" mask="url(#path-1-outside-1_303:19441)"/>
<path d="M16.9 14.7508H15.5V13.3508C15.5 13.1296 15.3208 12.9508 15.1 12.9508C14.8792 12.9508 14.7 13.1296 14.7 13.3508V14.7508H13.3C13.0792 14.7508 12.9 14.9296 12.9 15.1508C12.9 15.372 13.0792 15.5508 13.3 15.5508H14.7V16.9508C14.7 17.172 14.8792 17.3508 15.1 17.3508C15.3208 17.3508 15.5 17.172 15.5 16.9508V15.5508H16.9C17.1208 15.5508 17.3 15.372 17.3 15.1508C17.3 14.9296 17.1208 14.7508 16.9 14.7508Z" fill="url(#paint2_linear_303:19441)" stroke="url(#paint3_linear_303:19441)" stroke-width="0.2"/>
<defs>
<linearGradient id="paint0_linear_303:19441" x1="0.615207" y1="2.00128" x2="20.2963" y2="3.61125" gradientUnits="userSpaceOnUse">
<stop stop-color="#6C01C3"/>
<stop offset="1" stop-color="#901CEE"/>
</linearGradient>
<linearGradient id="paint1_linear_303:19441" x1="0.615207" y1="2.00128" x2="20.2963" y2="3.61125" gradientUnits="userSpaceOnUse">
<stop stop-color="#6C01C3"/>
<stop offset="1" stop-color="#901CEE"/>
</linearGradient>
<linearGradient id="paint2_linear_303:19441" x1="12.9102" y1="13.0636" x2="17.5054" y2="13.4207" gradientUnits="userSpaceOnUse">
<stop stop-color="#6C01C3"/>
<stop offset="1" stop-color="#901CEE"/>
</linearGradient>
<linearGradient id="paint3_linear_303:19441" x1="12.9102" y1="13.0636" x2="17.5054" y2="13.4207" gradientUnits="userSpaceOnUse">
<stop stop-color="#6C01C3"/>
<stop offset="1" stop-color="#901CEE"/>
</linearGradient>
</defs>
</svg>
