<svg width="62" height="62" viewBox="0 0 62 62" fill="none" xmlns="http://www.w3.org/2000/svg">
<g clip-path="url(#clip0_1:3275)">
<path d="M31.0005 0C13.8802 0 0.000976562 13.8794 0.000976562 30.9997C0.000976562 48.1194 13.88 62 31 62C48.1201 62 62.0006 48.1194 62.0006 30.9997C62.0006 13.8794 48.1203 0 31.0005 0ZM44.0784 34.4099H34.1027V44.84C34.1021 46.589 32.6844 48.0067 30.9349 48.0067C29.1849 48.0067 27.7672 46.589 27.7672 44.839V34.4099H18.0571C16.3074 34.4092 14.8903 32.9915 14.8893 31.2421C14.8893 29.4931 16.3076 28.0748 18.0571 28.0744L27.767 28.075V18.8183C27.767 17.0686 29.1853 15.6505 30.9343 15.6505C32.6844 15.6505 34.1027 17.0688 34.1021 18.8183L34.1027 28.0741L44.0774 28.0752C45.827 28.0741 47.2457 29.4929 47.2451 31.2429C47.2457 32.9926 45.827 34.4099 44.0784 34.4099Z" fill="#6C01C3"/>
</g>
<defs>
<clipPath id="clip0_1:3275">
<rect width="62" height="62" fill="white"/>
</clipPath>
</defs>
</svg>
