<svg width="46" height="46" viewBox="0 0 46 46" fill="none" xmlns="http://www.w3.org/2000/svg">
<rect y="46" width="46" height="46" rx="23" transform="rotate(-90 0 46)" fill="#F1F5F9"/>
<path d="M18 24.3C16.6739 24.3 15.4021 23.7521 14.4645 22.777C13.5268 21.8018 13 20.4791 13 19.1C13 17.7209 13.5268 16.3982 14.4645 15.423C15.4021 14.4479 16.6739 13.9 18 13.9L28 13.9L28 10L33 15.2L28 20.4L28 16.5L18 16.5C17.337 16.5 16.7011 16.7739 16.2322 17.2615C15.7634 17.7491 15.5 18.4104 15.5 19.1C15.5 19.7896 15.7634 20.4509 16.2322 20.9385C16.7011 21.4261 17.337 21.7 18 21.7L28 21.7C29.3261 21.7 30.5979 22.2479 31.5355 23.223C32.4732 24.1982 33 25.5209 33 26.9C33 28.2791 32.4732 29.6018 31.5355 30.577C30.5979 31.5521 29.3261 32.1 28 32.1L18 32.1L18 36L13 30.8L18 25.6L18 29.5L28 29.5C28.663 29.5 29.2989 29.2261 29.7678 28.7385C30.2366 28.2509 30.5 27.5896 30.5 26.9C30.5 26.2104 30.2366 25.5491 29.7678 25.0615C29.2989 24.5739 28.663 24.3 28 24.3L18 24.3Z" fill="#6C01C3"/>
</svg>
