<svg width="225" height="40" viewBox="0 0 225 40" fill="none" xmlns="http://www.w3.org/2000/svg">
<path fill-rule="evenodd" clip-rule="evenodd" d="M19.7515 40C25.4641 40 30.6102 37.5443 34.2166 33.6186L38.2184 28.9431L51.7571 15.234C53.1699 13.1069 55.5691 11.7073 58.2911 11.7073C60.9313 11.7073 63.2679 13.0241 64.6951 15.0444L73.1732 6.84989C69.5525 2.65203 64.2276 0 58.2911 0C52.4291 0 47.1636 2.58576 43.5463 6.69231C43.4464 6.80569 43.3298 6.91197 43.1987 7.01116L39.0213 11.3821L34.877 7.03585C34.7323 6.92966 34.6045 6.81515 34.4963 6.69231C30.879 2.58576 25.6135 0 19.7515 0C8.84306 0 0 8.9543 0 20C0 31.0457 8.84306 40 19.7515 40ZM26.0999 24.3829C24.668 26.3592 22.3577 27.6423 19.7515 27.6423C15.4059 27.6423 11.883 24.0751 11.883 19.6748C11.883 15.2745 15.4059 11.7073 19.7515 11.7073C22.4735 11.7073 24.8727 13.1069 26.2855 15.234L30.8316 19.8374L26.0999 24.3829Z" fill="#AA3935"/>
<path d="M50.8214 22.186L41.7841 31.0716L44.1037 33.9148C47.694 37.6675 52.7235 40 58.2911 40C64.3158 40 69.7105 37.2686 73.3333 32.9621L64.5588 24.4924C63.1216 26.4065 60.8489 27.6423 58.2911 27.6423C54.8119 27.6423 51.8602 25.3558 50.8214 22.186Z" fill="#AA3935"/>
<path d="M92 17.8783C92 16.6508 92.2153 15.5178 92.646 14.4792C93.0767 13.4248 93.6829 12.5199 94.4645 11.7646C95.2621 10.9935 96.1873 10.3955 97.2401 9.97059C98.2929 9.5457 99.4414 9.33325 100.686 9.33325C101.93 9.33325 103.078 9.5457 104.131 9.97059C105.2 10.3955 106.125 10.9935 106.907 11.7646C107.704 12.5199 108.318 13.4248 108.749 14.4792C109.18 15.5178 109.395 16.6508 109.395 17.8783C109.395 19.1058 109.18 20.2467 108.749 21.3011C108.318 22.3397 107.712 23.2524 106.931 24.0393C106.149 24.8104 105.224 25.4162 104.155 25.8569C103.102 26.2817 101.946 26.4942 100.686 26.4942C99.4255 26.4942 98.269 26.2817 97.2162 25.8569C96.1634 25.4162 95.2462 24.8104 94.4645 24.0393C93.6829 23.2524 93.0767 22.3397 92.646 21.3011C92.2153 20.2467 92 19.1058 92 17.8783ZM94.9909 17.8783C94.9909 19.0114 95.2302 20.0264 95.7087 20.9234C96.2032 21.8046 96.8812 22.4971 97.7426 23.0006C98.604 23.5042 99.585 23.756 100.686 23.756C101.802 23.756 102.783 23.5042 103.629 23.0006C104.49 22.4971 105.16 21.8046 105.639 20.9234C106.133 20.0264 106.38 19.0114 106.38 17.8783C106.38 16.7453 106.141 15.7381 105.663 14.8569C105.184 13.9599 104.514 13.2596 103.653 12.756C102.807 12.2524 101.818 12.0006 100.686 12.0006C99.585 12.0006 98.604 12.2524 97.7426 12.756C96.8812 13.2596 96.2032 13.9599 95.7087 14.8569C95.2302 15.7381 94.9909 16.7453 94.9909 17.8783Z" fill="#06678A"/>
<path d="M114.438 31.3333H111.83V15.2817H114.438V17.0993C114.837 16.4384 115.355 15.927 115.993 15.565C116.631 15.1873 117.365 14.9985 118.195 14.9985C119.152 14.9985 120.037 15.2267 120.851 15.683C121.664 16.1237 122.318 16.7689 122.813 17.6187C123.307 18.4684 123.554 19.4992 123.554 20.7109C123.554 21.9227 123.307 22.9534 122.813 23.8032C122.318 24.653 121.664 25.3061 120.851 25.7624C120.037 26.2031 119.152 26.4234 118.195 26.4234C117.365 26.4234 116.631 26.2424 115.993 25.8805C115.355 25.5028 114.837 24.9835 114.438 24.3225V31.3333ZM120.875 20.7109C120.875 19.6251 120.548 18.791 119.894 18.2088C119.24 17.6108 118.466 17.3118 117.573 17.3118C117.078 17.3118 116.592 17.4456 116.113 17.7131C115.634 17.9649 115.236 18.3426 114.917 18.8461C114.598 19.3497 114.438 19.9713 114.438 20.7109C114.438 21.4506 114.598 22.0722 114.917 22.5757C115.236 23.0793 115.634 23.4649 116.113 23.7324C116.592 23.9842 117.078 24.1101 117.573 24.1101C118.466 24.1101 119.24 23.8189 119.894 23.2367C120.548 22.6387 120.875 21.7968 120.875 20.7109Z" fill="#06678A"/>
<path d="M130.778 26.3762C129.645 26.3762 128.656 26.1401 127.811 25.668C126.965 25.1959 126.311 24.535 125.849 23.6852C125.386 22.8354 125.155 21.844 125.155 20.7109C125.155 19.5622 125.386 18.5707 125.849 17.7367C126.327 16.8869 126.997 16.226 127.859 15.7539C128.72 15.2817 129.733 15.0457 130.898 15.0457C132.636 15.0457 133.984 15.5414 134.941 16.5328C135.914 17.5085 136.401 18.8619 136.401 20.5929C136.401 20.7345 136.393 20.8762 136.377 21.0178C136.377 21.1437 136.377 21.2381 136.377 21.3011H127.811C127.907 22.2453 128.218 22.977 128.744 23.4963C129.286 24.0157 130.004 24.2753 130.898 24.2753C132.301 24.2753 133.354 23.7009 134.056 22.5521L136.305 23.4255C135.157 25.3926 133.314 26.3762 130.778 26.3762ZM130.874 16.9813C129.199 16.9813 128.202 17.8311 127.883 19.5307H133.577C133.53 18.7596 133.258 18.1458 132.764 17.6895C132.269 17.2174 131.639 16.9813 130.874 16.9813Z" fill="#06678A"/>
<path d="M145.95 19.5307C145.95 17.9098 145.272 17.0993 143.916 17.0993C143.182 17.0993 142.584 17.3197 142.122 17.7603C141.675 18.2009 141.452 18.791 141.452 19.5307V26.1401H138.867V15.2817H141.452V16.9577C142.153 15.683 143.262 15.0457 144.778 15.0457C146.022 15.0457 146.971 15.4234 147.625 16.1787C148.279 16.9184 148.606 17.9413 148.606 19.2474V26.1401H145.95V19.5307Z" fill="#06678A"/>
<path d="M154.227 17.8783C154.227 19.0428 154.49 20.0657 155.017 20.947C155.543 21.8282 156.237 22.5128 157.098 23.0006C157.976 23.4727 158.925 23.7088 159.946 23.7088C161.126 23.7088 162.147 23.4885 163.008 23.0478C163.886 22.5915 164.611 22.025 165.186 21.3483V24.6766C164.5 25.2431 163.742 25.6759 162.913 25.9749C162.099 26.2739 161.078 26.4234 159.85 26.4234C158.622 26.4234 157.481 26.2188 156.428 25.8096C155.375 25.3848 154.45 24.7946 153.653 24.0393C152.871 23.2839 152.257 22.3869 151.81 21.3483C151.38 20.2939 151.164 19.1373 151.164 17.8783C151.164 16.6194 151.38 15.4706 151.81 14.432C152.257 13.3776 152.871 12.4727 153.653 11.7174C154.45 10.962 155.375 10.3797 156.428 9.97059C157.481 9.5457 158.622 9.33325 159.85 9.33325C161.078 9.33325 162.099 9.48275 162.913 9.78175C163.742 10.0807 164.5 10.5135 165.186 11.08V14.4084C164.611 13.7317 163.886 13.173 163.008 12.7324C162.147 12.276 161.126 12.0478 159.946 12.0478C158.925 12.0478 157.976 12.2918 157.098 12.7796C156.237 13.2517 155.543 13.9284 155.017 14.8096C154.49 15.6752 154.227 16.6981 154.227 17.8783Z" fill="#06678A"/>
<path d="M169.263 18.1144L168.21 16.3204C168.721 16.0214 169.367 15.7302 170.148 15.447C170.93 15.1637 171.831 15.0221 172.852 15.0221C174.208 15.0221 175.317 15.3211 176.178 15.9191C177.055 16.5013 177.494 17.3275 177.494 18.3976V26.1401H174.958V24.653C174.607 25.2353 174.088 25.668 173.403 25.9513C172.717 26.2345 172.023 26.3762 171.321 26.3762C170.635 26.3762 169.997 26.2424 169.407 25.9749C168.816 25.7074 168.346 25.3139 167.995 24.7946C167.644 24.2753 167.469 23.6458 167.469 22.9062C167.469 21.8518 167.843 21.0178 168.593 20.4041C169.359 19.7746 170.42 19.4599 171.775 19.4599C172.493 19.4599 173.115 19.5385 173.642 19.6959C174.168 19.8533 174.607 20.0264 174.958 20.2152V18.8933C174.958 18.2324 174.735 17.7682 174.288 17.5006C173.857 17.2331 173.299 17.0993 172.613 17.0993C171.831 17.0993 171.137 17.2252 170.531 17.477C169.925 17.7288 169.502 17.9413 169.263 18.1144ZM170.077 22.7646C170.077 23.2996 170.268 23.7167 170.651 24.0157C171.05 24.3147 171.544 24.4642 172.134 24.4642C172.9 24.4642 173.562 24.236 174.12 23.7796C174.679 23.3075 174.958 22.6623 174.958 21.844V21.6787C174.192 21.3168 173.339 21.1358 172.398 21.1358C171.584 21.1358 170.994 21.2853 170.627 21.5843C170.26 21.8676 170.077 22.261 170.077 22.7646Z" fill="#06678A"/>
<path d="M187.589 19.5307C187.589 17.9098 186.911 17.0993 185.555 17.0993C184.822 17.0993 184.223 17.3197 183.761 17.7603C183.314 18.2009 183.091 18.791 183.091 19.5307V26.1401H180.507V15.2817H183.091V16.9577C183.793 15.683 184.901 15.0457 186.417 15.0457C187.661 15.0457 188.61 15.4234 189.264 16.1787C189.918 16.9184 190.245 17.9413 190.245 19.2474V26.1401H187.589V19.5307Z" fill="#06678A"/>
<path d="M191.754 15.2817H194.601L197.472 22.2925L200.344 15.2817H203.167L197.472 27.1551L191.754 15.2817Z" fill="#06678A"/>
<path d="M205.575 18.1144L204.522 16.3204C205.032 16.0214 205.679 15.7302 206.46 15.447C207.242 15.1637 208.143 15.0221 209.164 15.0221C210.52 15.0221 211.628 15.3211 212.49 15.9191C213.367 16.5013 213.806 17.3275 213.806 18.3976V26.1401H211.27V24.653C210.919 25.2353 210.4 25.668 209.714 25.9513C209.028 26.2345 208.334 26.3762 207.633 26.3762C206.947 26.3762 206.309 26.2424 205.718 25.9749C205.128 25.7074 204.658 25.3139 204.307 24.7946C203.956 24.2753 203.78 23.6458 203.78 22.9062C203.78 21.8518 204.155 21.0178 204.905 20.4041C205.671 19.7746 206.731 19.4599 208.087 19.4599C208.805 19.4599 209.427 19.5385 209.954 19.6959C210.48 19.8533 210.919 20.0264 211.27 20.2152V18.8933C211.27 18.2324 211.046 17.7682 210.6 17.5006C210.169 17.2331 209.611 17.0993 208.925 17.0993C208.143 17.0993 207.449 17.2252 206.843 17.477C206.237 17.7288 205.814 17.9413 205.575 18.1144ZM206.388 22.7646C206.388 23.2996 206.58 23.7167 206.963 24.0157C207.361 24.3147 207.856 24.4642 208.446 24.4642C209.212 24.4642 209.874 24.236 210.432 23.7796C210.99 23.3075 211.27 22.6623 211.27 21.844V21.6787C210.504 21.3168 209.65 21.1358 208.709 21.1358C207.896 21.1358 207.306 21.2853 206.939 21.5843C206.572 21.8676 206.388 22.261 206.388 22.7646Z" fill="#06678A"/>
<path d="M217.321 22.5757C217.863 23.158 218.398 23.6065 218.924 23.9212C219.466 24.2202 220.017 24.3697 220.575 24.3697C221.038 24.3697 221.397 24.2674 221.652 24.0629C221.923 23.8426 222.059 23.5593 222.059 23.2131C222.059 22.741 221.827 22.3712 221.365 22.1036C220.918 21.8204 220.328 21.5529 219.594 21.3011C219.1 21.1122 218.605 20.8919 218.111 20.6401C217.632 20.3726 217.233 20.0343 216.914 19.6251C216.611 19.2002 216.46 18.6573 216.46 17.9963C216.46 17.3354 216.635 16.7925 216.986 16.3676C217.337 15.927 217.8 15.5965 218.374 15.3762C218.948 15.1559 219.57 15.0457 220.24 15.0457C221.133 15.0457 221.955 15.2267 222.705 15.5886C223.454 15.9506 224.053 16.4069 224.499 16.9577L223.064 18.4684C222.713 18.0593 222.274 17.7209 221.748 17.4534C221.237 17.1702 220.711 17.0285 220.168 17.0285C219.801 17.0285 219.498 17.1072 219.259 17.2646C219.02 17.4219 218.9 17.6501 218.9 17.9491C218.9 18.3583 219.123 18.6809 219.57 18.9169C220.033 19.153 220.607 19.4048 221.293 19.6723C221.899 19.9084 222.457 20.168 222.968 20.4513C223.478 20.7188 223.885 21.0571 224.188 21.4663C224.507 21.8755 224.667 22.4105 224.667 23.0714C224.667 24.0943 224.308 24.9205 223.59 25.55C222.888 26.1637 221.939 26.4706 220.743 26.4706C219.61 26.4706 218.621 26.2267 217.776 25.7388C216.946 25.251 216.292 24.6923 215.814 24.0629L217.321 22.5757Z" fill="#06678A"/>
</svg>
