<svg width="206" height="27" viewBox="0 0 206 27" fill="none" xmlns="http://www.w3.org/2000/svg">
<path fill-rule="evenodd" clip-rule="evenodd" d="M13.7232 26.6736C17.5476 26.6736 20.9928 25.0361 23.4072 22.4183L26.0863 19.3004L35.1501 10.1587C36.096 8.74017 37.7021 7.80691 39.5244 7.80691C41.292 7.80691 42.8563 8.68497 43.8118 10.0322L49.4877 4.56778C47.0637 1.76848 43.4988 0 39.5244 0C35.6 0 32.0749 1.72429 29.6532 4.4627C29.5863 4.5383 29.5083 4.60918 29.4205 4.67532L26.6238 7.59005L23.8493 4.69179C23.7524 4.62098 23.6669 4.54461 23.5944 4.4627C21.1727 1.72429 17.6476 0 13.7232 0C6.42021 0 0.5 5.97109 0.5 13.3368C0.5 20.7025 6.42021 26.6736 13.7232 26.6736ZM17.9733 16.2595C17.0146 17.5774 15.468 18.433 13.7232 18.433C10.8139 18.433 8.4554 16.0542 8.4554 13.1199C8.4554 10.1856 10.8139 7.80691 13.7232 7.80691C15.5455 7.80691 17.1516 8.74017 18.0975 10.1587L21.141 13.2284L17.9733 16.2595Z" fill="url(#paint0_linear)"/>
<path d="M34.5237 14.7945L28.4735 20.7198L30.0263 22.6158C32.43 25.1182 35.7971 26.6736 39.5244 26.6736C43.5578 26.6736 47.1695 24.8522 49.5949 21.9805L43.7205 16.3325C42.7584 17.6089 41.2368 18.433 39.5244 18.433C37.1952 18.433 35.2191 16.9083 34.5237 14.7945Z" fill="url(#paint1_linear)"/>
<path d="M60.582 13.2312C60.582 12.0518 60.7859 10.9743 61.1936 9.99868C61.6159 9.0231 62.1983 8.17856 62.9409 7.46508C63.6981 6.75159 64.5717 6.20556 65.5619 5.82697C66.5666 5.43383 67.6514 5.23725 68.8162 5.23725C69.9957 5.23725 71.0878 5.43383 72.0925 5.82697C73.0972 6.20556 73.9635 6.75159 74.6916 7.46508C75.4342 8.17856 76.0094 9.0231 76.4171 9.99868C76.8393 10.9743 77.0505 12.0518 77.0505 13.2312C77.0505 14.4106 76.8466 15.4954 76.4389 16.4856C76.0458 17.4757 75.4779 18.3348 74.7353 19.0629C73.9927 19.7909 73.119 20.3588 72.1143 20.7665C71.1242 21.1596 70.0248 21.3562 68.8162 21.3562C67.6222 21.3562 66.5229 21.1596 65.5182 20.7665C64.5135 20.3588 63.6398 19.7909 62.8972 19.0629C62.1546 18.3348 61.5795 17.4757 61.1717 16.4856C60.7786 15.4954 60.582 14.4106 60.582 13.2312ZM64.4916 13.2312C64.4916 14.134 64.6664 14.9348 65.0158 15.6338C65.3799 16.3181 65.8895 16.8569 66.5447 17.25C67.2 17.6432 67.9572 17.8398 68.8162 17.8398C69.6899 17.8398 70.4471 17.6432 71.0878 17.25C71.7284 16.8569 72.2235 16.3181 72.573 15.6338C72.937 14.9348 73.119 14.134 73.119 13.2312C73.119 12.3284 72.9443 11.5349 72.5948 10.8505C72.2453 10.1516 71.7503 9.60554 71.1096 9.21239C70.4689 8.81925 69.7045 8.62267 68.8162 8.62267C67.9572 8.62267 67.2 8.81925 66.5447 9.21239C65.8895 9.60554 65.3799 10.1516 65.0158 10.8505C64.6664 11.5349 64.4916 12.3284 64.4916 13.2312Z" fill="#363636"/>
<path d="M79.3938 5.58671H84.7013C86.6524 5.58671 88.1304 6.03082 89.1351 6.91904C90.1398 7.80726 90.6421 9.03038 90.6421 10.5884C90.6421 12.1319 90.1398 13.355 89.1351 14.2578C88.1304 15.146 86.6524 15.5901 84.7013 15.5901H83.085V20.8757H79.3938V5.58671ZM84.7013 8.62267H83.085V12.5323H84.7013C85.4439 12.5323 86.0263 12.3648 86.4486 12.0299C86.8709 11.695 87.082 11.2145 87.082 10.5884C87.082 9.94772 86.8709 9.45993 86.4486 9.12502C86.0263 8.79012 85.4439 8.62267 84.7013 8.62267Z" fill="#363636"/>
<path d="M93.002 5.58671H103.158V8.62267H96.5622V11.3529H102.721V14.3451H96.5622V17.8398H103.158V20.8757H93.002V5.58671Z" fill="#363636"/>
<path d="M116.712 5.58671H120.272V21.6402L109.722 12.292V20.8757H106.162V4.82227L116.712 14.1704V5.58671Z" fill="#363636"/>
<path d="M124.705 13.2312C124.705 14.4106 124.967 15.4518 125.491 16.3545C126.03 17.2573 126.729 17.9635 127.588 18.4732C128.447 18.9828 129.379 19.2376 130.384 19.2376C131.461 19.2376 132.415 19.0265 133.245 18.6042C134.075 18.1819 134.759 17.6359 135.298 16.9661V19.4123C134.657 19.9802 133.959 20.4025 133.201 20.6791C132.444 20.9558 131.505 21.0941 130.384 21.0941C129.321 21.0941 128.323 20.9048 127.392 20.5262C126.474 20.1331 125.666 19.5871 124.967 18.8881C124.268 18.1747 123.722 17.3374 123.329 16.3764C122.936 15.4154 122.739 14.367 122.739 13.2312C122.739 12.0955 122.936 11.0471 123.329 10.086C123.722 9.12503 124.268 8.29505 124.967 7.59613C125.666 6.88264 126.474 6.3366 127.392 5.95802C128.323 5.56487 129.321 5.3683 130.384 5.3683C131.505 5.3683 132.444 5.50663 133.201 5.78329C133.959 6.05995 134.657 6.48221 135.298 7.05009V9.49633C134.759 8.81197 134.075 8.26593 133.245 7.85822C132.415 7.43596 131.461 7.22482 130.384 7.22482C129.379 7.22482 128.447 7.47964 127.588 7.98927C126.729 8.4989 126.03 9.20511 125.491 10.1079C124.967 10.9961 124.705 12.0372 124.705 13.2312Z" fill="#363636"/>
<path d="M148.729 20.8757L146.785 16.289H140.626L138.682 20.8757H136.607L143.705 4.82227L150.804 20.8757H148.729ZM143.705 9.03766L141.368 14.5417H146.042L143.705 9.03766Z" fill="#363636"/>
<path d="M164.24 5.58671H166.096V21.6402L154.52 9.49633V20.8757H152.664V4.82227L164.24 16.9661V5.58671Z" fill="#363636"/>
<path d="M175.06 17.4248L180.083 5.58671H182.158L175.06 21.6402L167.961 5.58671H170.036L175.06 17.4248Z" fill="#363636"/>
<path d="M192.326 20.8757L190.383 16.289H184.223L182.279 20.8757H180.204L187.303 4.82227L194.401 20.8757H192.326ZM187.303 9.03766L184.966 14.5417H189.64L187.303 9.03766Z" fill="#363636"/>
<path d="M196.829 16.2453C197.339 17.1772 197.907 17.9271 198.533 18.495C199.173 19.0629 199.952 19.3468 200.87 19.3468C201.685 19.3468 202.34 19.1211 202.836 18.6697C203.331 18.2183 203.578 17.6432 203.578 16.9443C203.578 16.2599 203.418 15.7139 203.098 15.3061C202.777 14.8984 202.355 14.5708 201.831 14.3233C201.321 14.0612 200.775 13.8282 200.193 13.6244C199.814 13.4933 199.392 13.3259 198.926 13.122C198.46 12.9036 198.016 12.6342 197.594 12.3139C197.171 11.979 196.822 11.5713 196.545 11.0908C196.283 10.6102 196.152 10.0205 196.152 9.3216C196.152 8.56443 196.341 7.88734 196.72 7.29035C197.099 6.69335 197.623 6.2274 198.293 5.89249C198.962 5.54303 199.727 5.3683 200.586 5.3683C201.416 5.3683 202.137 5.52847 202.748 5.84881C203.374 6.15459 203.906 6.55502 204.343 7.05009C204.779 7.5306 205.122 8.04023 205.369 8.57899L203.775 9.49633C203.585 9.11774 203.345 8.74644 203.054 8.38242C202.763 8.01839 202.406 7.71989 201.984 7.48692C201.576 7.25394 201.074 7.13746 200.477 7.13746C199.647 7.13746 199.042 7.34131 198.664 7.74902C198.285 8.14216 198.096 8.58627 198.096 9.08134C198.096 9.72202 198.351 10.2826 198.86 10.7631C199.37 11.2436 200.295 11.7169 201.634 12.1828C202.042 12.3284 202.472 12.5177 202.923 12.7507C203.374 12.9837 203.789 13.2822 204.168 13.6462C204.561 13.9957 204.881 14.4252 205.129 14.9348C205.376 15.4299 205.5 16.0269 205.5 16.7258C205.5 17.6141 205.275 18.3858 204.823 19.041C204.386 19.6963 203.811 20.2059 203.098 20.5699C202.384 20.9194 201.62 21.0941 200.804 21.0941C199.974 21.0941 199.203 20.9194 198.489 20.5699C197.79 20.2059 197.171 19.7327 196.633 19.1502C196.108 18.5532 195.679 17.9198 195.344 17.25L196.829 16.2453Z" fill="#363636"/>
<defs>
<linearGradient id="paint0_linear" x1="47.9965" y1="1.41403e-06" x2="2.40507" y2="23.9742" gradientUnits="userSpaceOnUse">
<stop stop-color="#FFBA02"/>
<stop offset="0.5" stop-color="#F41E5E"/>
<stop offset="1" stop-color="#6C01C3"/>
</linearGradient>
<linearGradient id="paint1_linear" x1="47.9965" y1="1.41403e-06" x2="2.40507" y2="23.9742" gradientUnits="userSpaceOnUse">
<stop stop-color="#FFBA02"/>
<stop offset="0.5" stop-color="#F41E5E"/>
<stop offset="1" stop-color="#6C01C3"/>
</linearGradient>
</defs>
</svg>
