<svg width="19" height="10" viewBox="0 0 19 10" fill="none" xmlns="http://www.w3.org/2000/svg">
<path fill-rule="evenodd" clip-rule="evenodd" d="M5.11744 10C6.59751 10 7.93083 9.38609 8.8652 8.40466L9.90203 7.23577L13.4098 3.80851C13.7758 3.27671 14.3974 2.92683 15.1027 2.92683C15.7868 2.92683 16.3921 3.25602 16.7619 3.76111L18.9585 1.71247C18.0204 0.663006 16.6408 0 15.1027 0C13.5839 0 12.2197 0.646441 11.2824 1.67308C11.2566 1.70142 11.2264 1.72799 11.1924 1.75279L10.1101 2.84553L9.03632 1.75896C8.99883 1.73242 8.96572 1.70379 8.93768 1.67308C8.00046 0.646441 6.63622 0 5.11744 0C2.29116 0 0 2.23858 0 5C0 7.76142 2.29116 10 5.11744 10ZM6.76226 6.09573C6.39126 6.58981 5.79269 6.91057 5.11744 6.91057C3.99152 6.91057 3.07878 6.01878 3.07878 4.9187C3.07878 3.81862 3.99152 2.92683 5.11744 2.92683C5.82268 2.92683 6.44428 3.27671 6.81033 3.80851L7.9882 4.95935L6.76226 6.09573Z" fill="url(#paint0_linear_419:22274)"/>
<path d="M13.1674 5.54649L10.8259 7.76791L11.4269 8.47871C12.3571 9.41686 13.6602 10 15.1027 10C16.6636 10 18.0613 9.31716 19 8.24053L16.7266 6.12309C16.3542 6.60162 15.7654 6.91057 15.1027 6.91057C14.2013 6.91057 13.4365 6.33896 13.1674 5.54649Z" fill="url(#paint1_linear_419:22274)"/>
<defs>
<linearGradient id="paint0_linear_419:22274" x1="18.3814" y1="5.30122e-07" x2="0.98452" y2="9.44349" gradientUnits="userSpaceOnUse">
<stop stop-color="#FFBA02"/>
<stop offset="0.5" stop-color="#F41E5E"/>
<stop offset="1" stop-color="#6C01C3"/>
</linearGradient>
<linearGradient id="paint1_linear_419:22274" x1="18.3814" y1="5.30122e-07" x2="0.98452" y2="9.44349" gradientUnits="userSpaceOnUse">
<stop stop-color="#FFBA02"/>
<stop offset="0.5" stop-color="#F41E5E"/>
<stop offset="1" stop-color="#6C01C3"/>
</linearGradient>
</defs>
</svg>
