<svg width="40" height="40" viewBox="0 0 40 40" fill="none" xmlns="http://www.w3.org/2000/svg">
<circle cx="20" cy="20" r="20" fill="url(#paint0_linear)"/>
<path d="M18.2222 12H12.8889C12.6531 12 12.427 12.0937 12.2603 12.2603C12.0937 12.427 12 12.6531 12 12.8889V18.2222C12 18.458 12.0937 18.6841 12.2603 18.8508C12.427 19.0175 12.6531 19.1111 12.8889 19.1111H18.2222C18.458 19.1111 18.6841 19.0175 18.8508 18.8508C19.0175 18.6841 19.1111 18.458 19.1111 18.2222V12.8889C19.1111 12.6531 19.0175 12.427 18.8508 12.2603C18.6841 12.0937 18.458 12 18.2222 12ZM17.3333 17.3333H13.7778V13.7778H17.3333V17.3333ZM27.1111 20.8889H21.7778C21.542 20.8889 21.3159 20.9825 21.1492 21.1492C20.9825 21.3159 20.8889 21.542 20.8889 21.7778V27.1111C20.8889 27.3469 20.9825 27.573 21.1492 27.7397C21.3159 27.9064 21.542 28 21.7778 28H27.1111C27.3469 28 27.573 27.9064 27.7397 27.7397C27.9064 27.573 28 27.3469 28 27.1111V21.7778C28 21.542 27.9064 21.3159 27.7397 21.1492C27.573 20.9825 27.3469 20.8889 27.1111 20.8889ZM26.2222 26.2222H22.6667V22.6667H26.2222V26.2222ZM24.4444 12C22.4836 12 20.8889 13.5947 20.8889 15.5556C20.8889 17.5164 22.4836 19.1111 24.4444 19.1111C26.4053 19.1111 28 17.5164 28 15.5556C28 13.5947 26.4053 12 24.4444 12ZM24.4444 17.3333C23.464 17.3333 22.6667 16.536 22.6667 15.5556C22.6667 14.5751 23.464 13.7778 24.4444 13.7778C25.4249 13.7778 26.2222 14.5751 26.2222 15.5556C26.2222 16.536 25.4249 17.3333 24.4444 17.3333ZM15.5556 20.8889C13.5947 20.8889 12 22.4836 12 24.4444C12 26.4053 13.5947 28 15.5556 28C17.5164 28 19.1111 26.4053 19.1111 24.4444C19.1111 22.4836 17.5164 20.8889 15.5556 20.8889ZM15.5556 26.2222C14.5751 26.2222 13.7778 25.4249 13.7778 24.4444C13.7778 23.464 14.5751 22.6667 15.5556 22.6667C16.536 22.6667 17.3333 23.464 17.3333 24.4444C17.3333 25.4249 16.536 26.2222 15.5556 26.2222Z" fill="white"/>
<defs>
<linearGradient id="paint0_linear" x1="-0.855096" y1="0.121783" x2="42.9089" y2="3.52281" gradientUnits="userSpaceOnUse">
<stop stop-color="#6C01C3"/>
<stop offset="1" stop-color="#901CEE"/>
</linearGradient>
</defs>
</svg>
