<svg width="16" height="17" viewBox="0 0 16 17" fill="none" xmlns="http://www.w3.org/2000/svg">
<g clip-path="url(#clip0)">
<path fill-rule="evenodd" clip-rule="evenodd" d="M8 16.5C3.5815 16.5 0 12.9185 0 8.5C0 4.0815 3.5815 0.5 8 0.5C12.4185 0.5 16 4.0815 16 8.5C16 12.9185 12.4185 16.5 8 16.5ZM11.997 8.6095L8.249 2.5L4.5 8.61L8.249 10.7865L11.997 8.6095ZM12 9.308L8.249 11.4835L4.5 9.3085L8.249 14.4975L12 9.308Z" fill="#6366F1"/>
<path d="M8.24902 2.5V6.935L11.9975 8.61L8.24902 2.5ZM8.24902 11.484V14.4975L12 9.308L8.24902 11.484Z" fill="#141724" fill-opacity="0.298"/>
<path d="M8.24902 10.786L11.9975 8.60955L8.24902 6.93555V10.786Z" fill="#4776E6" fill-opacity="0.8"/>
<path d="M4.5 8.60955L8.249 10.786V6.93555L4.5 8.60955Z" fill="#141724" fill-opacity="0.298"/>
</g>
<defs>
<clipPath id="clip0">
<rect width="16" height="16" fill="white" transform="translate(0 0.5)"/>
</clipPath>
</defs>
</svg>
