<svg width="40" height="40" viewBox="0 0 40 40" fill="none" xmlns="http://www.w3.org/2000/svg">
<circle cx="20" cy="20" r="20" fill="url(#paint0_linear)"/>
<path d="M14.0655 12.2843C13.9784 12.1954 13.8746 12.1245 13.7601 12.0758C13.6455 12.027 13.5225 12.0013 13.398 12C13.2735 11.9988 13.15 12.0222 13.0346 12.0687C12.9191 12.1152 12.8139 12.1841 12.7251 12.2713C11.72 13.2705 10.9227 14.4589 10.3792 15.7678C9.83576 17.0768 9.55686 18.4804 9.5586 19.8977C9.55697 21.3693 9.85783 22.8256 10.4425 24.1762C11.0272 25.5267 11.8832 26.7427 12.9574 27.7486C13.1382 27.9157 13.377 28.0058 13.6232 27.9997C13.8693 27.9936 14.1034 27.8918 14.2757 27.716C14.6881 27.3035 14.6372 26.647 14.2404 26.2672C13.3783 25.4456 12.6923 24.4573 12.224 23.3623C11.7557 22.2673 11.515 21.0886 11.5164 19.8977C11.5164 17.4882 12.4836 15.3033 14.0525 13.7135C14.431 13.3285 14.4702 12.6889 14.0655 12.2843Z" fill="white"/>
<path d="M16.364 14.5841C16.1921 14.4072 15.9571 14.3057 15.7105 14.3018C15.4639 14.2979 15.2258 14.3919 15.0484 14.5632C14.342 15.2603 13.7814 16.0909 13.3991 17.0068C13.0168 17.9226 12.8205 18.9053 12.8217 19.8977C12.8217 22.1061 13.7745 24.0914 15.2924 25.4631C15.4716 25.6214 15.7048 25.7047 15.9436 25.6957C16.1825 25.6867 16.4087 25.5861 16.5755 25.4149C17.0036 24.9867 16.924 24.3132 16.522 23.9347C15.9709 23.4167 15.532 22.7912 15.2323 22.0968C14.9325 21.4024 14.7785 20.654 14.7795 19.8977C14.7795 18.3967 15.376 17.034 16.3458 16.0342C16.7191 15.6505 16.7804 14.9992 16.364 14.5841Z" fill="white"/>
<path d="M23.6367 14.5841C23.8086 14.4072 24.0436 14.3057 24.2902 14.3018C24.5369 14.2979 24.775 14.3919 24.9524 14.5632C25.6587 15.2603 26.2194 16.0909 26.6017 17.0068C26.9839 17.9226 27.1802 18.9053 27.1791 19.8977C27.1791 22.1061 26.2263 24.0914 24.7083 25.4631C24.5292 25.6214 24.296 25.7047 24.0571 25.6957C23.8183 25.6867 23.592 25.5861 23.4253 25.4149C22.9972 24.9867 23.0768 24.3132 23.4788 23.9347C24.0299 23.4167 24.4688 22.7912 24.7685 22.0968C25.0682 21.4024 25.2223 20.654 25.2213 19.8977C25.2213 18.3967 24.6248 17.034 23.655 16.0342C23.2817 15.6505 23.2204 14.9992 23.6367 14.5841Z" fill="white"/>
<path d="M25.9352 12.2843C26.0224 12.1954 26.1262 12.1245 26.2407 12.0758C26.3552 12.027 26.4783 12.0013 26.6028 12C26.7272 11.9988 26.8507 12.0222 26.9662 12.0687C27.0817 12.1152 27.1868 12.1841 27.2757 12.2713C28.2808 13.2705 29.0781 14.4589 29.6215 15.7678C30.165 17.0768 30.4439 18.4804 30.4422 19.8977C30.4438 21.3693 30.1429 22.8256 29.5583 24.1762C28.9736 25.5267 28.1176 26.7427 27.0434 27.7486C26.8626 27.9157 26.6237 28.0058 26.3776 27.9997C26.1315 27.9936 25.8974 27.8918 25.7251 27.716C25.3126 27.3035 25.3635 26.647 25.7616 26.2672C26.6235 25.4455 27.3093 24.4571 27.7773 23.3621C28.2454 22.2672 28.4859 21.0885 28.4843 19.8977C28.4843 17.4882 27.5172 15.3033 25.9483 13.7135C25.5698 13.3285 25.5306 12.6889 25.9352 12.2843Z" fill="white"/>
<path d="M20.0004 17.9398C19.4811 17.9398 18.9831 18.1461 18.616 18.5133C18.2488 18.8804 18.0425 19.3784 18.0425 19.8977C18.0425 20.4169 18.2488 20.9149 18.616 21.2821C18.9831 21.6492 19.4811 21.8555 20.0004 21.8555C20.5196 21.8555 21.0176 21.6492 21.3848 21.2821C21.7519 20.9149 21.9582 20.4169 21.9582 19.8977C21.9582 19.3784 21.7519 18.8804 21.3848 18.5133C21.0176 18.1461 20.5196 17.9398 20.0004 17.9398Z" fill="white"/>
<defs>
<linearGradient id="paint0_linear" x1="-0.855096" y1="0.121783" x2="42.9089" y2="3.52281" gradientUnits="userSpaceOnUse">
<stop stop-color="#6C01C3"/>
<stop offset="1" stop-color="#901CEE"/>
</linearGradient>
</defs>
</svg>
