<svg width="12" height="11" viewBox="0 0 12 11" fill="none" xmlns="http://www.w3.org/2000/svg">
<circle cx="5.70605" cy="5.5" r="5.5" fill="white"/>
<path fill-rule="evenodd" clip-rule="evenodd" d="M5.70605 0C2.66855 0 0.206055 2.4625 0.206055 5.5C0.206055 8.5375 2.66855 11 5.70605 11C8.74356 11 11.2061 8.5375 11.2061 5.5C11.2061 2.4625 8.74356 0 5.70605 0ZM8.09005 4.57C8.13395 4.51982 8.16737 4.46137 8.18835 4.39808C8.20932 4.3348 8.21743 4.26796 8.21219 4.20149C8.20695 4.13503 8.18847 4.07028 8.15784 4.01106C8.12721 3.95185 8.08505 3.89935 8.03383 3.85667C7.98261 3.81399 7.92337 3.78198 7.8596 3.76253C7.79583 3.74308 7.72882 3.73658 7.6625 3.74341C7.59618 3.75025 7.53189 3.77027 7.47343 3.80232C7.41496 3.83436 7.36349 3.87777 7.32205 3.93L5.17205 6.5095L4.05955 5.3965C3.96525 5.30542 3.83895 5.25502 3.70785 5.25616C3.57676 5.2573 3.45135 5.30989 3.35865 5.40259C3.26594 5.49529 3.21336 5.6207 3.21222 5.7518C3.21108 5.8829 3.26148 6.0092 3.35255 6.1035L4.85255 7.6035C4.90168 7.6526 4.9605 7.69092 5.02526 7.71603C5.09002 7.74114 5.1593 7.75248 5.22869 7.74932C5.29807 7.74617 5.36604 7.7286 5.42826 7.69772C5.49048 7.66685 5.54558 7.62335 5.59005 7.57L8.09005 4.57Z" fill="url(#paint0_linear)"/>
<defs>
<linearGradient id="paint0_linear" x1="-0.0290966" y1="0.0334903" x2="12.006" y2="0.968772" gradientUnits="userSpaceOnUse">
<stop stop-color="#6C01C3"/>
<stop offset="1" stop-color="#901CEE"/>
</linearGradient>
</defs>
</svg>
