<svg width="34" height="34" viewBox="0 0 34 34" fill="none" xmlns="http://www.w3.org/2000/svg">
<circle r="15.25" transform="matrix(-1 0 0 1 17 17)" fill="white" stroke="white" stroke-width="1.5"/>
<path d="M24.1951 16.3444L24.1943 16.3436L19.3561 11.5288C18.9937 11.1681 18.4074 11.1694 18.0466 11.5319C17.6859 11.8944 17.6873 12.4806 18.0497 12.8413L21.2981 16.0739H10.4593C9.94786 16.0739 9.53333 16.4885 9.53333 16.9999C9.53333 17.5113 9.94786 17.9258 10.4593 17.9258H21.298L18.0498 21.1584C17.6873 21.5191 17.6859 22.1054 18.0467 22.4678C18.4075 22.8304 18.9937 22.8316 19.3562 22.471L24.1943 17.6562L24.1951 17.6553C24.5578 17.2933 24.5566 16.7052 24.1951 16.3444Z" fill="#AA3935"/>
</svg>
