<svg width="34" height="34" viewBox="0 0 34 34" fill="none" xmlns="http://www.w3.org/2000/svg">
<circle cx="17" cy="17" r="15.25" fill="white" stroke="#C4C4C4" stroke-width="1.5"/>
<path d="M9.80491 16.3444L9.80574 16.3436L14.6439 11.5288C15.0063 11.1681 15.5926 11.1694 15.9534 11.5319C16.3141 11.8944 16.3127 12.4806 15.9503 12.8413L12.7019 16.0739H23.5407C24.0521 16.0739 24.4667 16.4885 24.4667 16.9999C24.4667 17.5113 24.0521 17.9258 23.5407 17.9258H12.702L15.9502 21.1584C16.3127 21.5191 16.3141 22.1054 15.9533 22.4678C15.5925 22.8304 15.0063 22.8316 14.6438 22.471L9.80569 17.6562L9.80486 17.6553C9.44222 17.2933 9.44338 16.7052 9.80491 16.3444Z" fill="#C4C4C4"/>
</svg>
