<svg width="290" height="52" viewBox="0 0 290 52" fill="none" xmlns="http://www.w3.org/2000/svg">
<path fill-rule="evenodd" clip-rule="evenodd" d="M25.4953 51.632C32.8691 51.632 39.5117 48.4623 44.1668 43.395L49.3323 37.3598L66.8081 19.6641C68.6318 16.9183 71.7286 15.1118 75.2422 15.1118C78.6502 15.1118 81.6662 16.8115 83.5085 19.4194L94.4521 8.84185C89.7785 3.42324 82.9051 0 75.2422 0C67.6756 0 60.8788 3.33771 56.2096 8.63844C56.0807 8.78479 55.9302 8.92198 55.7609 9.05002L50.3687 14.692L45.0193 9.08189C44.8325 8.94482 44.6675 8.797 44.5279 8.63844C39.8586 3.33771 33.0619 0 25.4953 0C11.4146 0 0 11.5582 0 25.816C0 40.0738 11.4146 51.632 25.4953 51.632ZM33.6898 31.4735C31.8415 34.0245 28.8594 35.6807 25.4953 35.6807C19.8859 35.6807 15.3386 31.0762 15.3386 25.3963C15.3386 19.7163 19.8859 15.1118 25.4953 15.1118C29.0088 15.1118 32.1057 16.9183 33.9293 19.6641L39.7975 25.6061L33.6898 31.4735Z" fill="white"/>
<path d="M65.6003 28.6377L53.935 40.1073L56.9291 43.7773C61.5635 48.6212 68.0556 51.632 75.2422 51.632C83.0189 51.632 89.9824 48.1064 94.6588 42.5476L83.3325 31.6148C81.4775 34.0855 78.5438 35.6807 75.2422 35.6807C70.7513 35.6807 66.9412 32.7294 65.6003 28.6377Z" fill="white"/>
<path d="M118.754 23.0775C118.754 21.493 119.032 20.0305 119.588 18.6898C120.144 17.3289 120.926 16.1609 121.935 15.1858C122.964 14.1905 124.159 13.4186 125.518 12.8702C126.877 12.3217 128.359 12.0475 129.965 12.0475C131.571 12.0475 133.054 12.3217 134.413 12.8702C135.792 13.4186 136.986 14.1905 137.995 15.1858C139.025 16.1609 139.818 17.3289 140.374 18.6898C140.929 20.0305 141.207 21.493 141.207 23.0775C141.207 24.6619 140.929 26.1346 140.374 27.4955C139.818 28.8362 139.035 30.0144 138.026 31.03C137.017 32.0254 135.823 32.8074 134.444 33.3762C133.085 33.9246 131.592 34.1989 129.965 34.1989C128.338 34.1989 126.846 33.9246 125.487 33.3762C124.128 32.8074 122.944 32.0254 121.935 31.03C120.926 30.0144 120.144 28.8362 119.588 27.4955C119.032 26.1346 118.754 24.6619 118.754 23.0775ZM122.614 23.0775C122.614 24.54 122.923 25.8502 123.541 27.008C124.179 28.1456 125.054 29.0393 126.166 29.6894C127.278 30.3394 128.544 30.6644 129.965 30.6644C131.406 30.6644 132.673 30.3394 133.764 29.6894C134.876 29.0393 135.741 28.1456 136.358 27.008C136.997 25.8502 137.316 24.54 137.316 23.0775C137.316 21.6149 137.007 20.3149 136.389 19.1774C135.772 18.0195 134.907 17.1156 133.795 16.4656C132.704 15.8156 131.427 15.4905 129.965 15.4905C128.544 15.4905 127.278 15.8156 126.166 16.4656C125.054 17.1156 124.179 18.0195 123.541 19.1774C122.923 20.3149 122.614 21.6149 122.614 23.0775Z" fill="white"/>
<path d="M147.717 40.4451H144.35V19.7258H147.717V22.072C148.232 21.2188 148.901 20.5586 149.724 20.0914C150.548 19.6039 151.495 19.3602 152.566 19.3602C153.801 19.3602 154.944 19.6547 155.994 20.2438C157.044 20.8126 157.888 21.6454 158.527 22.7423C159.165 23.8392 159.484 25.1697 159.484 26.7338C159.484 28.2979 159.165 29.6284 158.527 30.7253C157.888 31.8222 157.044 32.6652 155.994 33.2543C154.944 33.8231 153.801 34.1074 152.566 34.1074C151.495 34.1074 150.548 33.8738 149.724 33.4066C148.901 32.9191 148.232 32.2488 147.717 31.3957V40.4451ZM156.025 26.7338C156.025 25.3322 155.603 24.2556 154.759 23.504C153.915 22.7321 152.916 22.3462 151.763 22.3462C151.125 22.3462 150.497 22.5189 149.879 22.8642C149.261 23.1892 148.746 23.6767 148.335 24.3267C147.923 24.9767 147.717 25.7791 147.717 26.7338C147.717 27.6885 147.923 28.4909 148.335 29.1409C148.746 29.7909 149.261 30.2886 149.879 30.6339C150.497 30.9589 151.125 31.1214 151.763 31.1214C152.916 31.1214 153.915 30.7456 154.759 29.9941C155.603 29.2222 156.025 28.1354 156.025 26.7338Z" fill="white"/>
<path d="M168.808 34.0465C167.346 34.0465 166.07 33.7418 164.978 33.1324C163.887 32.523 163.043 31.6699 162.446 30.573C161.849 29.4761 161.55 28.1963 161.55 26.7338C161.55 25.251 161.849 23.9712 162.446 22.8946C163.064 21.7977 163.928 20.9446 165.04 20.3352C166.152 19.7258 167.46 19.4211 168.963 19.4211C171.207 19.4211 172.947 20.061 174.182 21.3407C175.438 22.6001 176.066 24.347 176.066 26.5815C176.066 26.7643 176.056 26.9471 176.035 27.1299C176.035 27.2924 176.035 27.4143 176.035 27.4955H164.978C165.102 28.7143 165.504 29.6589 166.183 30.3292C166.883 30.9995 167.81 31.3347 168.963 31.3347C170.775 31.3347 172.134 30.5933 173.04 29.1104L175.943 30.2378C174.46 32.7769 172.082 34.0465 168.808 34.0465ZM168.932 21.9196C166.77 21.9196 165.483 23.0165 165.071 25.2103H172.422C172.36 24.215 172.01 23.4228 171.372 22.8337C170.733 22.2243 169.92 21.9196 168.932 21.9196Z" fill="white"/>
<path d="M188.392 25.2103C188.392 23.1181 187.517 22.072 185.767 22.072C184.82 22.072 184.048 22.3563 183.451 22.9251C182.874 23.4939 182.586 24.2556 182.586 25.2103V33.7418H179.25V19.7258H182.586V21.8892C183.492 20.2438 184.923 19.4211 186.879 19.4211C188.485 19.4211 189.71 19.9086 190.554 20.8837C191.399 21.8384 191.821 23.1587 191.821 24.8447V33.7418H188.392V25.2103Z" fill="white"/>
<path d="M199.076 23.0775C199.076 24.5806 199.416 25.901 200.096 27.0385C200.775 28.176 201.671 29.0597 202.783 29.6894C203.915 30.2987 205.14 30.6034 206.458 30.6034C207.982 30.6034 209.299 30.3191 210.411 29.7503C211.544 29.1612 212.481 28.4299 213.222 27.5565V31.8527C212.337 32.584 211.358 33.1426 210.288 33.5285C209.238 33.9145 207.92 34.1074 206.334 34.1074C204.749 34.1074 203.277 33.8434 201.918 33.3152C200.559 32.7668 199.365 32.005 198.335 31.03C197.326 30.055 196.533 28.8971 195.957 27.5565C195.401 26.1955 195.123 24.7025 195.123 23.0775C195.123 21.4524 195.401 19.9696 195.957 18.6289C196.533 17.2679 197.326 16.0999 198.335 15.1249C199.365 14.1499 200.559 13.3983 201.918 12.8702C203.277 12.3217 204.749 12.0475 206.334 12.0475C207.92 12.0475 209.238 12.2405 210.288 12.6264C211.358 13.0124 212.337 13.571 213.222 14.3022V18.5984C212.481 17.725 211.544 17.0039 210.411 16.4351C209.299 15.846 207.982 15.5515 206.458 15.5515C205.14 15.5515 203.915 15.8663 202.783 16.496C201.671 17.1054 200.775 17.9789 200.096 19.1164C199.416 20.2336 199.076 21.554 199.076 23.0775Z" fill="white"/>
<path d="M218.485 23.3822L217.126 21.0665C217.785 20.6805 218.619 20.3047 219.628 19.9391C220.637 19.5735 221.8 19.3906 223.118 19.3906C224.868 19.3906 226.299 19.7766 227.411 20.5485C228.543 21.3001 229.11 22.3665 229.11 23.7478V33.7418H225.836V31.8222C225.383 32.5738 224.714 33.1324 223.828 33.4981C222.943 33.8637 222.047 34.0465 221.141 34.0465C220.256 34.0465 219.432 33.8738 218.67 33.5285C217.908 33.1832 217.301 32.6754 216.848 32.005C216.395 31.3347 216.169 30.5222 216.169 29.5675C216.169 28.2065 216.652 27.1299 217.62 26.3377C218.609 25.5252 219.978 25.1189 221.728 25.1189C222.655 25.1189 223.458 25.2205 224.137 25.4236C224.817 25.6267 225.383 25.8502 225.836 26.0939V24.3877C225.836 23.5345 225.547 22.9353 224.971 22.5899C224.415 22.2446 223.694 22.072 222.809 22.072C221.8 22.072 220.904 22.2345 220.122 22.5595C219.339 22.8845 218.794 23.1587 218.485 23.3822ZM219.535 29.3847C219.535 30.0753 219.782 30.6136 220.276 30.9995C220.791 31.3855 221.429 31.5785 222.191 31.5785C223.18 31.5785 224.034 31.2839 224.755 30.6949C225.475 30.0855 225.836 29.2526 225.836 28.1963V27.9831C224.847 27.5159 223.746 27.2823 222.531 27.2823C221.481 27.2823 220.719 27.4752 220.245 27.8612C219.772 28.2268 219.535 28.7346 219.535 29.3847Z" fill="white"/>
<path d="M242.14 25.2103C242.14 23.1181 241.265 22.072 239.515 22.072C238.568 22.072 237.796 22.3563 237.199 22.9251C236.622 23.4939 236.334 24.2556 236.334 25.2103V33.7418H232.998V19.7258H236.334V21.8892C237.24 20.2438 238.671 19.4211 240.627 19.4211C242.233 19.4211 243.458 19.9086 244.302 20.8837C245.147 21.8384 245.569 23.1587 245.569 24.8447V33.7418H242.14V25.2103Z" fill="white"/>
<path d="M247.516 19.7258H251.191L254.897 28.7753L258.604 19.7258H262.248L254.897 35.052L247.516 19.7258Z" fill="white"/>
<path d="M265.356 23.3822L263.997 21.0665C264.656 20.6805 265.49 20.3047 266.499 19.9391C267.508 19.5735 268.671 19.3906 269.989 19.3906C271.739 19.3906 273.17 19.7766 274.282 20.5485C275.415 21.3001 275.981 22.3665 275.981 23.7478V33.7418H272.707V31.8222C272.254 32.5738 271.585 33.1324 270.699 33.4981C269.814 33.8637 268.918 34.0465 268.012 34.0465C267.127 34.0465 266.303 33.8738 265.542 33.5285C264.78 33.1832 264.172 32.6754 263.719 32.005C263.266 31.3347 263.04 30.5222 263.04 29.5675C263.04 28.2065 263.524 27.1299 264.491 26.3377C265.48 25.5252 266.849 25.1189 268.599 25.1189C269.526 25.1189 270.329 25.2205 271.008 25.4236C271.688 25.6267 272.254 25.8502 272.707 26.0939V24.3877C272.707 23.5345 272.419 22.9353 271.842 22.5899C271.286 22.2446 270.566 22.072 269.68 22.072C268.671 22.072 267.776 22.2345 266.993 22.5595C266.211 22.8845 265.665 23.1587 265.356 23.3822ZM266.406 29.3847C266.406 30.0753 266.653 30.6136 267.148 30.9995C267.662 31.3855 268.301 31.5785 269.062 31.5785C270.051 31.5785 270.905 31.2839 271.626 30.6949C272.347 30.0855 272.707 29.2526 272.707 28.1963V27.9831C271.719 27.5159 270.617 27.2823 269.402 27.2823C268.352 27.2823 267.59 27.4752 267.117 27.8612C266.643 28.2268 266.406 28.7346 266.406 29.3847Z" fill="white"/>
<path d="M280.518 29.1409C281.218 29.8925 281.908 30.4714 282.587 30.8777C283.287 31.2636 283.998 31.4566 284.719 31.4566C285.316 31.4566 285.779 31.3246 286.108 31.0605C286.458 30.7761 286.633 30.4105 286.633 29.9636C286.633 29.3542 286.335 28.8768 285.738 28.5315C285.161 28.1659 284.399 27.8206 283.452 27.4955C282.814 27.2518 282.176 26.9674 281.537 26.6424C280.92 26.2971 280.405 25.8603 279.993 25.3322C279.602 24.7838 279.406 24.083 279.406 23.2298C279.406 22.3767 279.633 21.6759 280.086 21.1274C280.539 20.5586 281.136 20.1321 281.877 19.8477C282.618 19.5633 283.421 19.4211 284.286 19.4211C285.439 19.4211 286.5 19.6547 287.467 20.1219C288.435 20.5891 289.207 21.1782 289.784 21.8892L287.931 23.8392C287.478 23.3111 286.911 22.8743 286.232 22.529C285.573 22.1634 284.894 21.9806 284.193 21.9806C283.72 21.9806 283.329 22.0821 283.02 22.2853C282.711 22.4884 282.557 22.7829 282.557 23.1689C282.557 23.697 282.845 24.1134 283.421 24.4181C284.018 24.7228 284.76 25.0478 285.645 25.3931C286.428 25.6978 287.148 26.033 287.807 26.3986C288.466 26.744 288.991 27.1807 289.382 27.7088C289.794 28.237 290 28.9276 290 29.7808C290 31.1011 289.537 32.1675 288.61 32.9801C287.704 33.7723 286.479 34.1684 284.935 34.1684C283.473 34.1684 282.196 33.8535 281.105 33.2238C280.034 32.5941 279.19 31.873 278.572 31.0605L280.518 29.1409Z" fill="white"/>
</svg>
