<svg width="189" height="25" viewBox="0 0 189 25" fill="none" xmlns="http://www.w3.org/2000/svg">
<path fill-rule="evenodd" clip-rule="evenodd" d="M12.9313 24.5749C16.4386 24.5749 19.5981 23.0732 21.8122 20.6725L24.2692 17.8132L32.5814 9.42953C33.4488 8.12866 34.9218 7.27279 36.593 7.27279C38.214 7.27279 39.6485 8.07804 40.5248 9.31357L45.73 4.30227C43.507 1.7351 40.2378 0.113281 36.593 0.113281C32.994 0.113281 29.7612 1.69458 27.5403 4.2059C27.479 4.27524 27.4074 4.34024 27.3269 4.4009L24.7621 7.07392L22.2177 4.416C22.1289 4.35106 22.0504 4.28103 21.984 4.2059C19.7631 1.69458 16.5303 0.113281 12.9313 0.113281C6.23396 0.113281 0.804688 5.58921 0.804688 12.3441C0.804688 19.099 6.23396 24.5749 12.9313 24.5749ZM16.829 15.0244C15.9498 16.233 14.5314 17.0177 12.9313 17.0177C10.2633 17.0177 8.10037 14.8362 8.10037 12.1452C8.10037 9.45426 10.2633 7.27279 12.9313 7.27279C14.6025 7.27279 16.0755 8.12866 16.9429 9.42953L19.734 12.2447L16.829 15.0244Z" fill="url(#paint0_linear)"/>
<path d="M32.0069 13.6809L26.4584 19.1149L27.8825 20.8536C30.0868 23.1485 33.1748 24.5749 36.593 24.5749C40.2919 24.5749 43.604 22.9046 45.8283 20.271L40.4411 15.0914C39.5588 16.2619 38.1634 17.0177 36.593 17.0177C34.4569 17.0177 32.6447 15.6194 32.0069 13.6809Z" fill="url(#paint1_linear)"/>
<path d="M55.9043 12.2468C55.9043 11.1652 56.0912 10.177 56.4651 9.28231C56.8524 8.38763 57.3865 7.61313 58.0676 6.95881C58.7619 6.30449 59.5631 5.80374 60.4712 5.45655C61.3926 5.096 62.3874 4.91573 63.4557 4.91573C64.5373 4.91573 65.5388 5.096 66.4602 5.45655C67.3816 5.80374 68.1761 6.30449 68.8438 6.95881C69.5248 7.61313 70.0523 8.38763 70.4262 9.28231C70.8134 10.177 71.0071 11.1652 71.0071 12.2468C71.0071 13.3284 70.8201 14.3232 70.4462 15.2313C70.0857 16.1393 69.5649 16.9272 68.8839 17.5948C68.2028 18.2625 67.4016 18.7833 66.4802 19.1572C65.5722 19.5177 64.564 19.698 63.4557 19.698C62.3607 19.698 61.3525 19.5177 60.4311 19.1572C59.5097 18.7833 58.7085 18.2625 58.0275 17.5948C57.3465 16.9272 56.819 16.1393 56.4451 15.2313C56.0846 14.3232 55.9043 13.3284 55.9043 12.2468ZM59.4897 12.2468C59.4897 13.0747 59.6499 13.8091 59.9704 14.4501C60.3043 15.0777 60.7716 15.5718 61.3725 15.9323C61.9734 16.2929 62.6678 16.4732 63.4557 16.4732C64.2569 16.4732 64.9513 16.2929 65.5388 15.9323C66.1264 15.5718 66.5804 15.0777 66.9009 14.4501C67.2347 13.8091 67.4016 13.0747 67.4016 12.2468C67.4016 11.4189 67.2414 10.6911 66.9209 10.0635C66.6004 9.42252 66.1464 8.92177 65.5589 8.56123C64.9713 8.20068 64.2702 8.02041 63.4557 8.02041C62.6678 8.02041 61.9734 8.20068 61.3725 8.56123C60.7716 8.92177 60.3043 9.42252 59.9704 10.0635C59.6499 10.6911 59.4897 11.4189 59.4897 12.2468Z" fill="#363636"/>
<path d="M73.1561 5.23621H78.0234C79.8128 5.23621 81.1682 5.64349 82.0896 6.45805C83.0109 7.27262 83.4716 8.39431 83.4716 9.82313C83.4716 11.2386 83.0109 12.3603 82.0896 13.1882C81.1682 14.0028 79.8128 14.41 78.0234 14.41H76.5412V19.2574H73.1561V5.23621ZM78.0234 8.02041H76.5412V11.6058H78.0234C78.7045 11.6058 79.2386 11.4523 79.6258 11.1451C80.0131 10.838 80.2067 10.3973 80.2067 9.82313C80.2067 9.23558 80.0131 8.78823 79.6258 8.4811C79.2386 8.17397 78.7045 8.02041 78.0234 8.02041Z" fill="#363636"/>
<path d="M85.6358 5.23621H94.9499V8.02041H88.9008V10.5242H94.5493V13.2683H88.9008V16.4732H94.9499V19.2574H85.6358V5.23621Z" fill="#363636"/>
<path d="M107.379 5.23621H110.644V19.9584L100.97 11.3855V19.2574H97.7048V4.53516L107.379 13.1081V5.23621Z" fill="#363636"/>
<path d="M114.71 12.2468C114.71 13.3284 114.95 14.2832 115.431 15.1111C115.925 15.939 116.566 16.5867 117.354 17.054C118.142 17.5214 118.996 17.7551 119.918 17.7551C120.906 17.7551 121.78 17.5615 122.542 17.1742C123.303 16.787 123.93 16.2862 124.424 15.6719V17.9153C123.837 18.4361 123.196 18.8234 122.502 19.0771C121.807 19.3308 120.946 19.4577 119.918 19.4577C118.943 19.4577 118.028 19.2841 117.174 18.9369C116.332 18.5763 115.591 18.0756 114.95 17.4346C114.309 16.7803 113.808 16.0125 113.448 15.1311C113.087 14.2498 112.907 13.2884 112.907 12.2468C112.907 11.2052 113.087 10.2438 113.448 9.36243C113.808 8.48111 114.309 7.71996 114.95 7.07899C115.591 6.42467 116.332 5.92392 117.174 5.57673C118.028 5.21618 118.943 5.03591 119.918 5.03591C120.946 5.03591 121.807 5.16277 122.502 5.41648C123.196 5.6702 123.837 6.05745 124.424 6.57824V8.82162C123.93 8.19401 123.303 7.69325 122.542 7.31935C121.78 6.9321 120.906 6.73848 119.918 6.73848C118.996 6.73848 118.142 6.97216 117.354 7.43953C116.566 7.90691 115.925 8.55455 115.431 9.38246C114.95 10.197 114.71 11.1518 114.71 12.2468Z" fill="#363636"/>
<path d="M136.741 19.2574L134.959 15.051H129.31L127.528 19.2574H125.625L132.135 4.53516L138.644 19.2574H136.741ZM132.135 8.40098L129.991 13.4486H134.278L132.135 8.40098Z" fill="#363636"/>
<path d="M150.966 5.23621H152.669V19.9584L142.053 8.82162V19.2574H140.35V4.53516L150.966 15.6719V5.23621Z" fill="#363636"/>
<path d="M160.889 16.0926L165.496 5.23621H167.399L160.889 19.9584L154.379 5.23621H156.282L160.889 16.0926Z" fill="#363636"/>
<path d="M176.724 19.2574L174.941 15.051H169.292L167.51 19.2574H165.607L172.117 4.53516L178.626 19.2574H176.724ZM172.117 8.40098L169.973 13.4486H174.26L172.117 8.40098Z" fill="#363636"/>
<path d="M180.853 15.0109C181.32 15.8656 181.841 16.5533 182.415 17.0741C183.003 17.5948 183.717 17.8552 184.559 17.8552C185.306 17.8552 185.907 17.6483 186.361 17.2343C186.815 16.8203 187.042 16.2929 187.042 15.6519C187.042 15.0243 186.895 14.5235 186.602 14.1497C186.308 13.7758 185.921 13.4753 185.44 13.2483C184.973 13.0079 184.472 12.7943 183.938 12.6073C183.59 12.4871 183.203 12.3336 182.776 12.1466C182.349 11.9463 181.941 11.6993 181.554 11.4055C181.167 11.0984 180.846 10.7245 180.593 10.2838C180.352 9.84316 180.232 9.30234 180.232 8.66138C180.232 7.967 180.406 7.34606 180.753 6.79857C181.1 6.25108 181.581 5.82376 182.195 5.51664C182.809 5.19615 183.51 5.03591 184.298 5.03591C185.059 5.03591 185.72 5.1828 186.281 5.47658C186.855 5.757 187.343 6.12422 187.743 6.57824C188.144 7.0189 188.458 7.48627 188.685 7.98035L187.223 8.82162C187.049 8.47443 186.829 8.13391 186.562 7.80008C186.295 7.46624 185.967 7.1925 185.58 6.97884C185.206 6.76518 184.746 6.65836 184.198 6.65836C183.437 6.65836 182.883 6.84531 182.536 7.2192C182.188 7.57975 182.015 7.98703 182.015 8.44104C182.015 9.0286 182.248 9.54271 182.716 9.98337C183.183 10.424 184.031 10.858 185.26 11.2853C185.634 11.4189 186.027 11.5925 186.441 11.8061C186.855 12.0198 187.236 12.2935 187.583 12.6274C187.944 12.9478 188.237 13.3418 188.464 13.8091C188.691 14.2632 188.805 14.8106 188.805 15.4516C188.805 16.2662 188.598 16.9739 188.184 17.5748C187.783 18.1757 187.256 18.6431 186.602 18.9769C185.947 19.2974 185.246 19.4577 184.498 19.4577C183.737 19.4577 183.03 19.2974 182.375 18.9769C181.734 18.6431 181.167 18.2091 180.673 17.675C180.192 17.1275 179.798 16.5466 179.491 15.9323L180.853 15.0109Z" fill="#363636"/>
<defs>
<linearGradient id="paint0_linear" x1="44.3625" y1="0.113283" x2="2.55177" y2="22.0994" gradientUnits="userSpaceOnUse">
<stop stop-color="#FFBA02"/>
<stop offset="0.5" stop-color="#F41E5E"/>
<stop offset="1" stop-color="#6C01C3"/>
</linearGradient>
<linearGradient id="paint1_linear" x1="44.3625" y1="0.113283" x2="2.55177" y2="22.0994" gradientUnits="userSpaceOnUse">
<stop stop-color="#FFBA02"/>
<stop offset="0.5" stop-color="#F41E5E"/>
<stop offset="1" stop-color="#6C01C3"/>
</linearGradient>
</defs>
</svg>
