<svg width="24" height="25" viewBox="0 0 24 25" fill="none" xmlns="http://www.w3.org/2000/svg">
<path fill-rule="evenodd" clip-rule="evenodd" d="M4.20969 11.2611C4.20725 11.2615 4.20481 11.2618 4.20237 11.2622C4.16813 12.9959 3.53989 14.6456 2.43378 15.9481C2.23845 16.1778 2.02827 16.3969 1.80387 16.6041C1.72615 16.6758 1.64672 16.7459 1.56561 16.8146C1.55294 16.8254 1.54043 16.8364 1.52808 16.8474C1.11169 17.216 0.873633 17.7451 0.873627 18.303C0.873627 18.5715 0.928207 18.8274 1.02685 19.0602C1.12784 19.2986 1.27502 19.5129 1.4571 19.6917C1.80856 20.0369 2.29005 20.25 2.82044 20.25H2.82064H7.5486V20.2502C7.5486 22.7079 9.54083 24.7001 11.9985 24.7001C14.4562 24.7001 16.4487 22.7079 16.4487 20.2502V20.25H21.1767C21.1768 20.25 21.1768 20.25 21.1769 20.25C21.2364 20.25 21.2953 20.2474 21.3534 20.2421C21.8199 20.2 22.2394 19.9927 22.5529 19.6792C22.9054 19.3267 23.1237 18.8399 23.1237 18.303C23.1237 18.2319 23.1198 18.1612 23.1122 18.0913C23.0601 17.6129 22.8326 17.1691 22.4694 16.8475C22.457 16.8364 22.4444 16.8254 22.4317 16.8146C22.3506 16.7459 22.2712 16.6758 22.1935 16.6041C21.9693 16.3972 21.7594 16.1783 21.5642 15.9489C20.4577 14.6463 19.8292 12.9963 19.795 11.2622C19.7925 11.2618 19.7901 11.2615 19.7876 11.2611C19.7867 11.2122 19.7862 11.1632 19.7862 11.1141V8.01248C19.7862 3.71818 16.2929 0.225052 11.9988 0.225052C11.9987 0.225052 11.9986 0.225052 11.9986 0.225052C7.70447 0.225052 4.21113 3.71818 4.21113 8.01248V11.1141C4.21113 11.1632 4.21065 11.2122 4.20969 11.2611Z" fill="#1E293B"/>
</svg>
