<svg width="16" height="16" viewBox="0 0 16 16" fill="none" xmlns="http://www.w3.org/2000/svg">
<path d="M15.7824 14.3075L7.2104 6.50351L7.6094 6.10351C7.92405 5.78756 8.11252 5.3676 8.1394 4.92251C8.15522 4.91585 8.17059 4.90817 8.1854 4.89951L9.7944 3.89351C9.89949 3.76542 9.95388 3.6032 9.94724 3.43766C9.9406 3.27211 9.87341 3.11477 9.7584 2.99551L6.9594 0.189508C6.84058 0.0744516 6.68354 0.00718323 6.51827 0.000542978C6.353 -0.00609727 6.19108 0.0483557 6.0634 0.153508L5.0594 1.76751L5.0374 1.81351C4.6074 1.84051 4.1854 2.01751 3.8594 2.34451L2.3374 3.87151C2.0104 4.19851 1.8344 4.62151 1.8074 5.05251C1.79159 5.05917 1.77622 5.06685 1.7614 5.07551L0.152403 6.08151C0.0473182 6.20959 -0.00707012 6.37181 -0.000433592 6.53736C0.00620294 6.7029 0.0734022 6.86024 0.188403 6.97951L2.9874 9.78551C3.10623 9.90056 3.26327 9.96783 3.42853 9.97447C3.5938 9.98111 3.75573 9.92666 3.8834 9.82151L4.8874 8.20751L4.9104 8.16151C5.3404 8.13451 5.7624 7.95751 6.0884 7.63051L6.5304 7.18751L14.3134 15.7835C14.5394 16.0325 14.8864 16.0725 15.0864 15.8725L15.8734 15.0835C16.0724 14.8835 16.0324 14.5345 15.7844 14.3085L15.7824 14.3075Z" fill="white"/>
</svg>
