<svg width="30" height="30" viewBox="0 0 30 30" fill="none" xmlns="http://www.w3.org/2000/svg">
<rect width="30" height="30" rx="15" fill="#F1F5F9"/>
<path d="M20.1147 14.2862L20.1146 14.2863L15.0072 19.6693L9.88831 14.2772C9.3435 13.7033 9.04236 12.9408 9.03949 12.1266C9.03951 11.3155 9.33777 10.5531 9.8825 9.9793C10.4273 9.40842 11.15 9.09231 11.9147 9.09231C12.6852 9.09231 13.4078 9.40843 13.9555 9.98534L14.6161 10.6812C14.8206 10.8966 15.1824 10.8962 15.3894 10.6815L15.3897 10.6812L16.0474 9.98838C16.5921 9.41456 17.3177 9.09839 18.0853 9.09839C18.8529 9.09839 19.5756 9.41452 20.1203 9.98838C20.6652 10.5623 20.9662 11.3247 20.9634 12.1387V12.1389C20.9634 12.9498 20.6623 13.7123 20.1147 14.2862ZM18.0853 7.95608C17.024 7.95608 16.0244 8.39355 15.2739 9.18414L15.0043 9.46805L14.729 9.17806C13.9785 8.38748 12.9789 7.95 11.9176 7.95C10.8591 7.95 9.86244 8.38441 9.11189 9.17502C8.36142 9.96555 7.95 11.0142 7.95 12.1297C7.95 13.2453 8.36437 14.294 9.11478 15.0844L14.6103 20.8734L14.6219 20.8855C14.727 20.9963 14.8673 21.05 15.0043 21.05C15.1449 21.05 15.2849 20.9928 15.3897 20.8825L20.8852 15.0936C21.6356 14.3031 22.05 13.2545 22.05 12.1389C22.05 11.0234 21.6386 9.97171 20.8881 9.18415C20.1404 8.39045 19.1437 7.95608 18.0853 7.95608Z" fill="url(#paint0_linear_303:19380)" stroke="url(#paint1_linear_303:19380)" stroke-width="0.1"/>
<defs>
<linearGradient id="paint0_linear_303:19380" x1="7.70072" y1="8.03958" x2="23.0034" y2="9.32028" gradientUnits="userSpaceOnUse">
<stop stop-color="#6C01C3"/>
<stop offset="1" stop-color="#901CEE"/>
</linearGradient>
<linearGradient id="paint1_linear_303:19380" x1="7.70072" y1="8.03958" x2="23.0034" y2="9.32028" gradientUnits="userSpaceOnUse">
<stop stop-color="#6C01C3"/>
<stop offset="1" stop-color="#901CEE"/>
</linearGradient>
</defs>
</svg>
