<svg width="19" height="14" viewBox="0 0 19 14" fill="none" xmlns="http://www.w3.org/2000/svg">
<path d="M9.62528 5.94602C9.61039 5.92701 9.59138 5.91163 9.56967 5.90105C9.54797 5.89048 9.52414 5.88498 9.49999 5.88498C9.47585 5.88498 9.45202 5.89048 9.43031 5.90105C9.40861 5.91163 9.38959 5.92701 9.37471 5.94602L7.14745 8.76392C7.12908 8.78737 7.11769 8.81551 7.11457 8.84513C7.11145 8.87474 7.11672 8.90464 7.12979 8.9314C7.14286 8.95816 7.1632 8.98071 7.18847 8.99645C7.21375 9.0122 7.24295 9.02052 7.27273 9.02045H8.74233V13.8409C8.74233 13.9284 8.81392 14 8.90142 14H10.0946C10.1821 14 10.2537 13.9284 10.2537 13.8409V9.02244H11.7273C11.8605 9.02244 11.9341 8.86932 11.8525 8.76591L9.62528 5.94602Z" fill="#0F172A"/>
<path d="M15.454 4.11051C14.5432 1.70824 12.2224 0 9.50398 0C6.78551 0 4.46478 1.70625 3.55398 4.10852C1.84972 4.55597 0.590912 6.10909 0.590912 7.95455C0.590912 10.152 2.37074 11.9318 4.5662 11.9318H5.36364C5.45114 11.9318 5.52273 11.8602 5.52273 11.7727V10.5795C5.52273 10.492 5.45114 10.4205 5.36364 10.4205H4.5662C3.89603 10.4205 3.26563 10.154 2.79631 9.67074C2.32898 9.18949 2.0804 8.54119 2.10228 7.86903C2.12017 7.34403 2.29915 6.85085 2.6233 6.43523C2.9554 6.01165 3.42074 5.70341 3.93779 5.56619L4.69148 5.36932L4.9679 4.64148C5.13892 4.18807 5.37756 3.76449 5.67784 3.38068C5.97429 3.00027 6.32545 2.66587 6.71989 2.38835C7.53722 1.81364 8.49972 1.50937 9.50398 1.50937C10.5082 1.50937 11.4707 1.81364 12.2881 2.38835C12.6838 2.66676 13.0338 3.00085 13.3301 3.38068C13.6304 3.76449 13.869 4.19006 14.0401 4.64148L14.3145 5.36733L15.0662 5.56619C16.144 5.85653 16.8977 6.83693 16.8977 7.95455C16.8977 8.61278 16.6412 9.23324 16.1759 9.69858C15.9476 9.92812 15.6762 10.1101 15.3771 10.234C15.0781 10.3579 14.7575 10.4213 14.4338 10.4205H13.6364C13.5489 10.4205 13.4773 10.492 13.4773 10.5795V11.7727C13.4773 11.8602 13.5489 11.9318 13.6364 11.9318H14.4338C16.6293 11.9318 18.4091 10.152 18.4091 7.95455C18.4091 6.11108 17.1543 4.55994 15.454 4.11051Z" fill="#0F172A"/>
</svg>
