<svg width="19" height="19" viewBox="0 0 19 19" fill="none" xmlns="http://www.w3.org/2000/svg">
<path d="M1.80469 3.34473C1.80469 2.81429 2.0154 2.30559 2.39047 1.93051C2.76555 1.55544 3.27425 1.34473 3.80469 1.34473H13.8047C14.0699 1.34473 14.3243 1.45008 14.5118 1.63762C14.6993 1.82516 14.8047 2.07951 14.8047 2.34473V5.34473L16.8047 9.34473V6.34473C16.8047 6.07951 16.6993 5.82516 16.5118 5.63762C16.3243 5.45008 16.0699 5.34473 15.8047 5.34473H3.80469C3.27425 5.34473 2.76555 5.13401 2.39047 4.75894C2.0154 4.38387 1.80469 3.87516 1.80469 3.34473ZM1.80469 3.34473V15.3447C1.80469 15.8752 2.0154 16.3839 2.39047 16.7589C2.76555 17.134 3.27425 17.3447 3.80469 17.3447H15.8047C16.0699 17.3447 16.3243 17.2394 16.5118 17.0518C16.6993 16.8643 16.8047 16.6099 16.8047 16.3447V13.3447M17.8047 9.34473V13.3447H13.8047C13.2743 13.3447 12.7655 13.134 12.3905 12.7589C12.0154 12.3839 11.8047 11.8752 11.8047 11.3447C11.8047 10.8143 12.0154 10.3056 12.3905 9.93051C12.7655 9.55544 13.2743 9.34473 13.8047 9.34473H17.8047Z" stroke="white" stroke-width="2" stroke-linecap="round" stroke-linejoin="round"/>
</svg>
