<svg width="40" height="40" viewBox="0 0 40 40" fill="none" xmlns="http://www.w3.org/2000/svg">
<circle cx="20" cy="20" r="20" fill="url(#paint0_linear)"/>
<path d="M30.292 17.2622V17.1622H30.192H26.4314L21.7315 12.8888C21.832 12.6387 21.8894 12.3666 21.8894 12.0801C21.8894 10.8759 20.9135 9.9 19.7092 9.9C18.505 9.9 17.5291 10.8759 17.5291 12.0801C17.5291 12.3523 17.5796 12.613 17.671 12.8535L12.7584 17.1622H9H8.9V17.2622V30V30.1H9H30.192H30.292V30V17.2622ZM15.0703 17.1622L18.683 13.994C18.988 14.1591 19.3348 14.2603 19.7092 14.2603C20.0694 14.2603 20.4036 14.1656 20.7003 14.0116L24.1652 17.1622H15.0703ZM28.7675 28.5755H10.4245V18.6868H28.7675V28.5755Z" fill="white" stroke="white" stroke-width="0.2"/>
<path d="M25.9922 21.0664V20.9664H25.8922H13.2988H13.1988V21.0664V22.3909V22.4909H13.2988H25.8922H25.9922V22.3909V21.0664Z" fill="white" stroke="white" stroke-width="0.2"/>
<path d="M25.9922 24.7305V24.6305H25.8922H13.2988H13.1988V24.7305V26.055V26.155H13.2988H25.8922H25.9922V26.055V24.7305Z" fill="white" stroke="white" stroke-width="0.2"/>
<defs>
<linearGradient id="paint0_linear" x1="-0.855096" y1="0.121783" x2="42.9089" y2="3.52281" gradientUnits="userSpaceOnUse">
<stop stop-color="#6C01C3"/>
<stop offset="1" stop-color="#901CEE"/>
</linearGradient>
</defs>
</svg>
