<svg width="40" height="40" viewBox="0 0 40 40" fill="none" xmlns="http://www.w3.org/2000/svg">
<g clip-path="url(#clip0)">
<path d="M19.7778 0C8.73205 0 -0.222168 8.95422 -0.222168 20C-0.222168 31.0458 8.73205 40 19.7778 40C30.8236 40 39.7778 31.0458 39.7778 20C39.7778 8.95422 30.8236 0 19.7778 0ZM25.0672 27.9911C25.0672 27.9911 24.3823 27.1729 23.8116 26.4502C26.3041 25.7462 27.2552 24.1862 27.2552 24.1862C26.4752 24.7 25.7329 25.0613 25.0672 25.3089C24.1161 25.7084 23.2027 25.9747 22.3085 26.1271C20.4818 26.4698 18.8076 26.3747 17.3809 26.108C16.2965 25.8987 15.3641 25.5942 14.5841 25.2898C14.1463 25.1187 13.6707 24.9093 13.1952 24.6431C13.1383 24.6049 13.0809 24.5862 13.0241 24.548C12.9858 24.5289 12.9672 24.5098 12.9481 24.4911C12.6054 24.3009 12.4152 24.1676 12.4152 24.1676C12.4152 24.1676 13.3285 25.6898 15.7445 26.4124C15.1738 27.1356 14.4698 27.9916 14.4698 27.9916C10.2649 27.8578 8.66672 25.0991 8.66672 25.0991C8.66672 18.9729 11.4063 14.0071 11.4063 14.0071C14.1458 11.9524 16.7525 12.0093 16.7525 12.0093L16.9427 12.2378C13.5178 13.2271 11.9387 14.7302 11.9387 14.7302C11.9387 14.7302 12.3574 14.5018 13.0614 14.1787C15.0974 13.2844 16.7143 13.0373 17.3801 12.98C17.4943 12.9609 17.5894 12.9418 17.7036 12.9418C18.8641 12.7898 20.1769 12.7516 21.5467 12.9036C23.3543 13.1129 25.2947 13.6453 27.2734 14.7302C27.2734 14.7302 25.7703 13.3031 22.5361 12.3138L22.8023 12.0093C22.8023 12.0093 25.4089 11.9524 28.1485 14.0071C28.1485 14.0071 30.8881 18.9729 30.8881 25.0991C30.8889 25.0991 29.2716 27.8578 25.0672 27.9911Z" fill="white"/>
<path d="M16.2247 19.1113C15.1399 19.1113 14.2837 20.0627 14.2837 21.2239C14.2837 22.3847 15.1591 23.3365 16.2247 23.3365C17.3094 23.3365 18.1657 22.3852 18.1657 21.2239C18.1848 20.0632 17.3094 19.1113 16.2247 19.1113ZM23.1711 19.1113C22.0864 19.1113 21.2301 20.0627 21.2301 21.2239C21.2301 22.3847 22.1055 23.3365 23.1711 23.3365C24.2559 23.3365 25.1121 22.3852 25.1121 21.2239C25.1121 20.0632 24.2559 19.1113 23.1711 19.1113Z" fill="white"/>
</g>
<defs>
<clipPath id="clip0">
<rect width="40" height="40" fill="white"/>
</clipPath>
</defs>
</svg>
