<svg width="40" height="40" viewBox="0 0 40 40" fill="none" xmlns="http://www.w3.org/2000/svg">
<path fill-rule="evenodd" clip-rule="evenodd" d="M20 40C31.0457 40 40 31.0457 40 20C40 8.9543 31.0457 0 20 0C8.9543 0 0 8.9543 0 20C0 31.0457 8.9543 40 20 40ZM28.156 8.614C27.378 8.312 26.536 8.133 25.318 8.077C23.81 8.008 23.277 8 20 8C16.722 8 16.19 8.008 14.682 8.077C13.464 8.133 12.623 8.312 11.843 8.614C11.1057 8.88994 10.4382 9.32491 9.888 9.888C9.32479 10.4385 8.88981 11.1063 8.614 11.844C8.312 12.622 8.133 13.464 8.077 14.682C8.008 16.19 8 16.723 8 20C8 23.278 8.008 23.81 8.077 25.318C8.133 26.536 8.312 27.377 8.614 28.156C8.88981 28.8937 9.32479 29.5615 9.888 30.112C10.4382 30.6751 11.1057 31.1101 11.843 31.386C12.622 31.688 13.464 31.867 14.682 31.923C16.191 31.992 16.723 32 20 32C23.277 32 23.808 31.992 25.318 31.923C26.536 31.867 27.377 31.688 28.156 31.386C28.8937 31.1102 29.5615 30.6752 30.112 30.112C30.6751 29.5618 31.1101 28.8943 31.386 28.157C31.688 27.378 31.867 26.536 31.923 25.318C31.992 23.808 32 23.276 32 20C32 16.724 31.992 16.192 31.923 14.682C31.867 13.464 31.688 12.623 31.386 11.844C31.1102 11.1063 30.6752 10.4385 30.112 9.888C29.5615 9.32479 28.8937 8.88981 28.156 8.614ZM14.803 10.741C16.2639 10.674 16.7599 10.667 19.999 10.667C23.239 10.667 23.735 10.674 25.196 10.741C26.123 10.783 26.68 10.902 27.19 11.1C27.5829 11.2414 27.9378 11.4717 28.227 11.773C28.5283 12.0622 28.7586 12.4171 28.9 12.81C29.099 13.32 29.217 13.876 29.259 14.803C29.326 16.265 29.333 16.761 29.333 20C29.333 23.239 29.326 23.735 29.259 25.197C29.217 26.124 29.098 26.681 28.9 27.191C28.731 27.626 28.551 27.903 28.227 28.227C27.903 28.55 27.626 28.73 27.191 28.9C26.68 29.099 26.124 29.217 25.197 29.259C23.735 29.326 23.24 29.333 20 29.333C16.761 29.333 16.265 29.326 14.803 29.259C13.876 29.217 13.319 29.098 12.809 28.9C12.374 28.731 12.097 28.551 11.773 28.227C11.45 27.903 11.27 27.626 11.1 27.19C10.901 26.68 10.783 26.124 10.741 25.197C10.674 23.736 10.667 23.24 10.667 20C10.667 16.76 10.674 16.264 10.741 14.803C10.783 13.876 10.902 13.319 11.1 12.809C11.269 12.374 11.449 12.097 11.773 11.773C12.097 11.45 12.374 11.27 12.809 11.1C13.32 10.901 13.876 10.783 14.803 10.741ZM15.6004 24.3996C16.7672 25.5665 18.3498 26.222 20 26.222C21.6502 26.222 23.2328 25.5665 24.3996 24.3996C25.5665 23.2328 26.222 21.6502 26.222 20C26.222 18.3498 25.5665 16.7672 24.3996 15.6004C23.2328 14.4335 21.6502 13.778 20 13.778C18.3498 13.778 16.7672 14.4335 15.6004 15.6004C14.4335 16.7672 13.778 18.3498 13.778 20C13.778 21.6502 14.4335 23.2328 15.6004 24.3996ZM22.5145 22.5145C21.8476 23.1814 20.9431 23.556 20 23.556C19.0569 23.556 18.1524 23.1814 17.4855 22.5145C16.8186 21.8476 16.444 20.9431 16.444 20C16.444 19.0569 16.8186 18.1524 17.4855 17.4855C18.1524 16.8186 19.0569 16.444 20 16.444C20.9431 16.444 21.8476 16.8186 22.5145 17.4855C23.1814 18.1524 23.556 19.0569 23.556 20C23.556 20.9431 23.1814 21.8476 22.5145 22.5145ZM25.2791 14.7204C25.5292 14.9705 25.8683 15.111 26.222 15.111C26.5757 15.111 26.9148 14.9705 27.1649 14.7204C27.415 14.4703 27.5555 14.1312 27.5555 13.7775C27.5555 13.4238 27.415 13.0847 27.1649 12.8346C26.9148 12.5845 26.5757 12.444 26.222 12.444C25.8683 12.444 25.5292 12.5845 25.2791 12.8346C25.029 13.0847 24.8885 13.4238 24.8885 13.7775C24.8885 14.1312 25.029 14.4703 25.2791 14.7204Z" fill="white"/>
</svg>
