<svg width="40" height="40" viewBox="0 0 40 40" fill="none" xmlns="http://www.w3.org/2000/svg">
<circle cx="20" cy="20" r="20" fill="url(#paint0_linear)"/>
<path d="M19 16C19 14.9391 19.4214 13.9217 20.1716 13.1716C20.9217 12.4214 21.9391 12 23 12C24.0609 12 25.0783 12.4214 25.8284 13.1716C26.5786 13.9217 27 14.9391 27 16V24H30L26 28L22 24H25V16C25 15.4696 24.7893 14.9609 24.4142 14.5858C24.0391 14.2107 23.5304 14 23 14C22.4696 14 21.9609 14.2107 21.5858 14.5858C21.2107 14.9609 21 15.4696 21 16V24C21 25.0609 20.5786 26.0783 19.8284 26.8284C19.0783 27.5786 18.0609 28 17 28C15.9391 28 14.9217 27.5786 14.1716 26.8284C13.4214 26.0783 13 25.0609 13 24V16H10L14 12L18 16H15V24C15 24.5304 15.2107 25.0391 15.5858 25.4142C15.9609 25.7893 16.4696 26 17 26C17.5304 26 18.0391 25.7893 18.4142 25.4142C18.7893 25.0391 19 24.5304 19 24V16Z" fill="white"/>
<defs>
<linearGradient id="paint0_linear" x1="-0.855096" y1="0.121783" x2="42.9089" y2="3.52281" gradientUnits="userSpaceOnUse">
<stop stop-color="#6C01C3"/>
<stop offset="1" stop-color="#901CEE"/>
</linearGradient>
</defs>
</svg>
