<svg width="60" height="60" viewBox="0 0 60 60" fill="none" xmlns="http://www.w3.org/2000/svg">
<path d="M30 13.75C32.3206 13.75 34.5462 14.6719 36.1872 16.3128C37.8281 17.9538 38.75 20.1794 38.75 22.5C38.75 24.8206 37.8281 27.0462 36.1872 28.6872C34.5462 30.3281 32.3206 31.25 30 31.25C27.6794 31.25 25.4538 30.3281 23.8128 28.6872C22.1719 27.0462 21.25 24.8206 21.25 22.5C21.25 20.1794 22.1719 17.9538 23.8128 16.3128C25.4538 14.6719 27.6794 13.75 30 13.75V13.75ZM12.5 20C13.9 20 15.2 20.375 16.325 21.05C15.95 24.625 17 28.175 19.15 30.95C17.9 33.35 15.4 35 12.5 35C10.5109 35 8.60322 34.2098 7.1967 32.8033C5.79018 31.3968 5 29.4891 5 27.5C5 25.5109 5.79018 23.6032 7.1967 22.1967C8.60322 20.7902 10.5109 20 12.5 20V20ZM47.5 20C49.4891 20 51.3968 20.7902 52.8033 22.1967C54.2098 23.6032 55 25.5109 55 27.5C55 29.4891 54.2098 31.3968 52.8033 32.8033C51.3968 34.2098 49.4891 35 47.5 35C44.6 35 42.1 33.35 40.85 30.95C43.0297 28.136 44.0414 24.5905 43.675 21.05C44.8 20.375 46.1 20 47.5 20V20ZM13.75 45.625C13.75 40.45 21.025 36.25 30 36.25C38.975 36.25 46.25 40.45 46.25 45.625V50H13.75V45.625ZM0 50V46.25C0 42.775 4.725 39.85 11.125 39C9.65 40.7 8.75 43.05 8.75 45.625V50H0ZM60 50H51.25V45.625C51.25 43.05 50.35 40.7 48.875 39C55.275 39.85 60 42.775 60 46.25V50Z" fill="#AA3935"/>
</svg>
