<svg width="30" height="30" viewBox="0 0 30 30" fill="none" xmlns="http://www.w3.org/2000/svg">
<circle cx="15" cy="15" r="15" fill="#F1F5F9"/>
<path d="M24.4546 14.4091C24.1705 14.4111 23.889 14.4644 23.6238 14.5663L20.7898 12.2464C20.8595 11.9935 20.9092 11.7311 20.9092 11.4545C20.9092 9.81655 19.5926 8.5 17.9546 8.5C16.3166 8.5 15.0001 9.81655 15.0001 11.4545C15.0001 11.9225 15.1182 12.3586 15.3097 12.751L11.8718 16.8141C11.7342 16.7883 11.5946 16.7745 11.4546 16.7727C11.2431 16.7727 11.0433 16.8082 10.8495 16.8602L7.82052 13.8312C7.8737 13.6385 7.90916 13.4388 7.90916 13.2273C7.90916 11.9178 6.85498 10.8636 5.54552 10.8636C4.23607 10.8636 3.18188 11.9178 3.18188 13.2273C3.18188 14.5367 4.23607 15.5909 5.54552 15.5909C5.75707 15.5909 5.95679 15.5555 6.15061 15.5035L9.17961 18.5325C9.1228 18.7288 9.09298 18.932 9.09098 19.1364C9.09098 20.4458 10.1452 21.5 11.4546 21.5C12.7641 21.5 13.8182 20.4458 13.8182 19.1364C13.8182 18.8563 13.7615 18.5927 13.6729 18.3434L17.1155 14.2755C17.3838 14.3535 17.6615 14.4091 17.9546 14.4091C18.421 14.4065 18.8801 14.2927 19.2936 14.077L22.1288 16.3969C22.1066 16.521 22.0939 16.6467 22.091 16.7727C22.091 18.0822 23.1452 19.1364 24.4546 19.1364C25.7641 19.1364 26.8182 18.0822 26.8182 16.7727C26.8182 15.4633 25.7641 14.4091 24.4546 14.4091Z" fill="url(#paint0_linear_1:1675)"/>
<defs>
<linearGradient id="paint0_linear_1:1675" x1="2.6766" y1="8.53958" x2="28.1841" y2="12.1437" gradientUnits="userSpaceOnUse">
<stop stop-color="#6C01C3"/>
<stop offset="1" stop-color="#901CEE"/>
</linearGradient>
</defs>
</svg>
