<svg width="16" height="16" viewBox="0 0 16 16" fill="none" xmlns="http://www.w3.org/2000/svg">
<path d="M7.14296 8C7.14296 8.22733 7.23326 8.44535 7.39401 8.60609C7.55475 8.76684 7.77277 8.85714 8.0001 8.85714C8.22743 8.85714 8.44545 8.76684 8.60619 8.60609C8.76694 8.44535 8.85724 8.22733 8.85724 8C8.85724 7.77267 8.76694 7.55465 8.60619 7.39391C8.44545 7.23316 8.22743 7.14286 8.0001 7.14286C7.77277 7.14286 7.55475 7.23316 7.39401 7.39391C7.23326 7.55465 7.14296 7.77267 7.14296 8ZM10.7144 8C10.7144 8.22733 10.8047 8.44535 10.9654 8.60609C11.1262 8.76684 11.3442 8.85714 11.5715 8.85714C11.7989 8.85714 12.0169 8.76684 12.1776 8.60609C12.3384 8.44535 12.4287 8.22733 12.4287 8C12.4287 7.77267 12.3384 7.55465 12.1776 7.39391C12.0169 7.23316 11.7989 7.14286 11.5715 7.14286C11.3442 7.14286 11.1262 7.23316 10.9654 7.39391C10.8047 7.55465 10.7144 7.77267 10.7144 8ZM3.57153 8C3.57153 8.22733 3.66184 8.44535 3.82258 8.60609C3.98333 8.76684 4.20134 8.85714 4.42867 8.85714C4.656 8.85714 4.87402 8.76684 5.03476 8.60609C5.19551 8.44535 5.28582 8.22733 5.28582 8C5.28582 7.77267 5.19551 7.55465 5.03476 7.39391C4.87402 7.23316 4.656 7.14286 4.42867 7.14286C4.20134 7.14286 3.98333 7.23316 3.82258 7.39391C3.66184 7.55465 3.57153 7.77267 3.57153 8ZM15.3787 4.9C14.9751 3.94107 14.3965 3.08036 13.659 2.34107C12.9267 1.60607 12.0573 1.02182 11.1001 0.621429C10.118 0.208929 9.0751 0 8.0001 0H7.96439C6.88224 0.00535714 5.83403 0.219643 4.84832 0.641071C3.89931 1.04557 3.03807 1.63085 2.3126 2.36429C1.58224 3.10179 1.00903 3.95893 0.612601 4.91429C0.201887 5.90357 -0.00525583 6.95536 0.000101308 8.0375C0.00616068 9.27763 0.299551 10.4995 0.857244 11.6071V14.3214C0.857244 14.5393 0.943787 14.7482 1.09783 14.9023C1.25188 15.0563 1.46082 15.1429 1.67867 15.1429H4.39474C5.50241 15.7006 6.72426 15.9939 7.96439 16H8.00189C9.07153 16 10.109 15.7929 11.0858 15.3875C12.0382 14.9919 12.9043 14.4144 13.6358 13.6875C14.3733 12.9571 14.9537 12.1036 15.359 11.1518C15.7805 10.1661 15.9947 9.11786 16.0001 8.03572C16.0055 6.94821 15.7947 5.89286 15.3787 4.9ZM12.6805 12.7214C11.4287 13.9607 9.76796 14.6429 8.0001 14.6429H7.96974C6.89296 14.6375 5.82332 14.3696 4.87867 13.8661L4.72867 13.7857H2.21439V11.2714L2.13403 11.1214C1.63046 10.1768 1.3626 9.10714 1.35724 8.03036C1.3501 6.25 2.03046 4.57857 3.27867 3.31964C4.5251 2.06071 6.19117 1.36429 7.97153 1.35714H8.00189C8.89474 1.35714 9.76081 1.53036 10.5769 1.87321C11.3733 2.20714 12.0876 2.6875 12.7019 3.30179C13.3144 3.91429 13.7965 4.63036 14.1305 5.42679C14.4769 6.25179 14.6501 7.12679 14.6465 8.03036C14.6358 9.80893 13.9376 11.475 12.6805 12.7214Z" fill="url(#paint0_linear_1:1693)"/>
<defs>
<linearGradient id="paint0_linear_1:1693" x1="-0.342043" y1="0.0487132" x2="17.1638" y2="1.40916" gradientUnits="userSpaceOnUse">
<stop stop-color="#6C01C3"/>
<stop offset="1" stop-color="#901CEE"/>
</linearGradient>
</defs>
</svg>
