<svg width="33" height="33" viewBox="0 0 33 33" fill="none" xmlns="http://www.w3.org/2000/svg">
<circle cx="16.0728" cy="16.916" r="16" fill="white"/>
<path fill-rule="evenodd" clip-rule="evenodd" d="M16.0728 0.916016C7.23639 0.916016 0.0727539 8.07965 0.0727539 16.916C0.0727539 25.7524 7.23639 32.916 16.0728 32.916C24.9091 32.916 32.0728 25.7524 32.0728 16.916C32.0728 8.07965 24.9091 0.916016 16.0728 0.916016ZM23.008 14.2106C23.1357 14.0646 23.233 13.8945 23.294 13.7104C23.355 13.5263 23.3786 13.3319 23.3633 13.1385C23.3481 12.9452 23.2943 12.7568 23.2052 12.5846C23.1161 12.4123 22.9935 12.2596 22.8445 12.1354C22.6955 12.0113 22.5231 11.9181 22.3376 11.8616C22.1521 11.805 21.9572 11.7861 21.7642 11.8059C21.5713 11.8258 21.3843 11.8841 21.2142 11.9773C21.0441 12.0705 20.8944 12.1968 20.7738 12.3487L14.5193 19.8527L11.2829 16.6149C11.0086 16.35 10.6412 16.2034 10.2598 16.2067C9.87843 16.21 9.51361 16.363 9.24393 16.6326C8.97424 16.9023 8.82127 17.2671 8.81796 17.6485C8.81464 18.0299 8.96125 18.3973 9.22621 18.6717L13.5898 23.0353C13.7328 23.1781 13.9039 23.2896 14.0923 23.3626C14.2807 23.4357 14.4822 23.4687 14.6841 23.4595C14.8859 23.4503 15.0836 23.3992 15.2646 23.3094C15.4456 23.2196 15.6059 23.093 15.7353 22.9378L23.008 14.2106Z" fill="url(#paint0_linear_1:1666)"/>
<defs>
<linearGradient id="paint0_linear_1:1666" x1="-0.611323" y1="1.01344" x2="34.3999" y2="3.73426" gradientUnits="userSpaceOnUse">
<stop stop-color="#6C01C3"/>
<stop offset="1" stop-color="#901CEE"/>
</linearGradient>
</defs>
</svg>
