<svg width="22" height="22" viewBox="0 0 22 22" fill="none" xmlns="http://www.w3.org/2000/svg">
<path d="M5.91886 15.7966L9.06315 6.45481C9.12118 6.28239 9.23624 6.13491 9.38935 6.03667L13.5236 3.38421C13.9625 3.1026 14.5492 3.3095 14.7144 3.80416L16.3532 8.71205C16.4084 8.87713 16.4082 9.05569 16.3526 9.22064L13.2275 18.5055C13.0828 18.9355 12.6097 19.1592 12.1855 18.9982L6.39319 16.7998C5.99119 16.6472 5.7817 16.2041 5.91886 15.7966ZM14.0158 7.38122C13.8273 7.94126 13.2514 8.21806 12.7356 8.02227C12.2134 7.8241 11.9285 7.20977 12.1186 6.64484C12.3071 6.0848 12.883 5.808 13.3989 6.00379C13.921 6.20196 14.206 6.81629 14.0158 7.38122ZM12.4833 8.72405C13.3969 9.0708 14.3897 8.56952 14.7069 7.6272C15.0224 6.68977 14.5585 5.64637 13.6512 5.30201C12.7376 4.95526 11.7448 5.45654 11.4276 6.39886C11.1121 7.33629 11.576 8.37968 12.4833 8.72405ZM17.0835 8.58797L15.2695 3.15547C15.0217 2.41349 14.1416 2.10314 13.4832 2.52556L8.90041 5.46585C8.67075 5.61321 8.49816 5.83444 8.41111 6.09305L5.11752 15.8785C4.91178 16.4897 5.22602 17.1543 5.82901 17.3832L12.2451 19.8184C12.8814 20.0599 13.5911 19.7243 13.8082 19.0792L17.0826 9.35084C17.1659 9.10342 17.1662 8.83559 17.0835 8.58797Z" fill="#901CEE" stroke="#901CEE" stroke-width="0.4"/>
</svg>
