<svg width="12" height="8" viewBox="0 0 12 8" fill="none" xmlns="http://www.w3.org/2000/svg">
<path d="M5.50595 7.7696C5.561 7.84066 5.63465 7.89875 5.72058 7.93889C5.8065 7.97903 5.90212 8 5.99919 8C6.09626 8 6.19187 7.97903 6.27779 7.93889C6.36372 7.89875 6.43738 7.84066 6.49242 7.7696L11.8928 0.836743C11.9554 0.756778 11.992 0.663118 11.9988 0.565938C12.0057 0.468757 11.9824 0.371773 11.9315 0.285524C11.8807 0.199274 11.8042 0.127057 11.7105 0.0767191C11.6167 0.0263811 11.5092 -0.000152706 11.3996 6.61103e-07H0.598764C0.489461 0.000401918 0.38235 0.027277 0.288948 0.0777355C0.195546 0.128194 0.119388 0.200327 0.0686635 0.286377C0.0179391 0.372427 -0.00543232 0.469139 0.00106256 0.566112C0.00755745 0.663084 0.0436729 0.756648 0.105525 0.836743L5.50595 7.7696Z" fill="#FF4C3F"/>
</svg>
