<svg width="40" height="40" viewBox="0 0 40 40" fill="none" xmlns="http://www.w3.org/2000/svg">
<circle cx="20" cy="20" r="20" fill="url(#paint0_linear)"/>
<path d="M22.6672 28H17.3336M22.6672 28V20.5329C22.6672 20.3915 22.611 20.2558 22.511 20.1558C22.411 20.0558 22.2753 19.9996 22.1339 19.9996H17.867C17.7255 19.9996 17.5899 20.0558 17.4898 20.1558C17.3898 20.2558 17.3336 20.3915 17.3336 20.5329V28M22.6672 28H27.4675C27.6089 28 27.7446 27.9438 27.8446 27.8438C27.9447 27.7438 28.0009 27.6081 28.0009 27.4666V25.4221C28.0009 25.2806 27.9447 25.145 27.8446 25.0449C27.7446 24.9449 27.6089 24.8887 27.4675 24.8887H23.2006C23.0591 24.8887 22.9235 24.9449 22.8235 25.0449C22.7234 25.145 22.6672 25.2806 22.6672 25.4221V28ZM17.3336 28V23.6442C17.3336 23.5028 17.2774 23.3671 17.1774 23.2671C17.0774 23.167 16.9417 23.1109 16.8003 23.1109H12.5334C12.3919 23.1109 12.2562 23.167 12.1562 23.2671C12.0562 23.3671 12 23.5028 12 23.6442V27.4666C12 27.6081 12.0562 27.7438 12.1562 27.8438C12.2562 27.9438 12.3919 28 12.5334 28H17.3336ZM18.939 13.8775L19.7471 12.1645C19.7689 12.1155 19.8044 12.0739 19.8494 12.0447C19.8944 12.0155 19.9468 12 20.0004 12C20.054 12 20.1065 12.0155 20.1515 12.0447C20.1964 12.0739 20.232 12.1155 20.2538 12.1645L21.0627 13.8775L22.869 14.1539C23.101 14.1895 23.1935 14.4882 23.0255 14.6588L21.7187 15.9922L22.0272 17.875C22.0663 18.1168 21.8245 18.3017 21.6165 18.187L20.0004 17.2981L18.3843 18.187C18.1772 18.3008 17.9345 18.1168 17.9737 17.875L18.2821 15.9922L16.9754 14.6588C16.8065 14.4882 16.8998 14.1895 17.1309 14.1539L18.939 13.8775Z" stroke="white" stroke-width="1.5" stroke-linecap="round" stroke-linejoin="round"/>
<defs>
<linearGradient id="paint0_linear" x1="-0.855096" y1="0.121783" x2="42.9089" y2="3.52281" gradientUnits="userSpaceOnUse">
<stop stop-color="#6C01C3"/>
<stop offset="1" stop-color="#901CEE"/>
</linearGradient>
</defs>
</svg>
