<svg width="12" height="8" viewBox="0 0 12 8" fill="none" xmlns="http://www.w3.org/2000/svg">
<path d="M6.49405 0.230402C6.439 0.159345 6.36535 0.101245 6.27942 0.0611086C6.1935 0.0209718 6.09788 4.76837e-07 6.00081 4.76837e-07C5.90374 4.76837e-07 5.80813 0.0209718 5.72221 0.0611086C5.63628 0.101245 5.56262 0.159345 5.50758 0.230402L0.107152 7.16326C0.0446424 7.24322 0.00798607 7.33688 0.00116348 7.43406C-0.00565815 7.53124 0.0176163 7.62823 0.0684576 7.71448C0.1193 7.80073 0.195765 7.87294 0.289545 7.92328C0.383326 7.97362 0.490834 8.00015 0.600391 8H11.4012C11.5105 7.9996 11.6177 7.97272 11.7111 7.92226C11.8045 7.87181 11.8806 7.79967 11.9313 7.71362C11.9821 7.62757 12.0054 7.53086 11.9989 7.43389C11.9924 7.33692 11.9563 7.24335 11.8945 7.16326L6.49405 0.230402Z" fill="#05C46B"/>
</svg>
