<svg width="517" height="92" viewBox="0 0 517 92" fill="none" xmlns="http://www.w3.org/2000/svg">
<path fill-rule="evenodd" clip-rule="evenodd" d="M45.4285 92C58.5674 92 70.4035 86.352 78.6981 77.3229L87.9023 66.5691L119.041 35.0383C122.291 30.1458 127.809 26.9268 134.069 26.9268C140.142 26.9268 145.516 29.9554 148.799 34.6022L168.298 15.7548C159.971 6.09966 147.724 0 134.069 0C120.587 0 108.476 5.94726 100.156 15.3923C99.9267 15.6531 99.6586 15.8975 99.357 16.1257L89.749 26.1789L80.2172 16.1825C79.8843 15.9382 79.5904 15.6748 79.3415 15.3923C71.0217 5.94726 58.911 0 45.4285 0C20.339 0 0 20.5949 0 46C0 71.4051 20.339 92 45.4285 92ZM60.0299 56.0807C56.7365 60.6262 51.4228 63.5772 45.4285 63.5772C35.4335 63.5772 27.331 55.3728 27.331 45.252C27.331 35.1313 35.4335 26.9268 45.4285 26.9268C51.689 26.9268 57.2071 30.1458 60.4566 35.0383L70.9128 45.626L60.0299 56.0807Z" fill="#AA3935"/>
<path d="M116.889 51.0277L96.1035 71.4648L101.438 78.0041C109.696 86.6352 121.264 92 134.069 92C147.926 92 160.334 85.7179 168.667 75.8129L148.485 56.3324C145.18 60.7349 139.952 63.5772 134.069 63.5772C126.067 63.5772 119.278 58.3184 116.889 51.0277Z" fill="#AA3935"/>
<path d="M211.6 41.1204C211.6 38.2973 212.095 35.6913 213.086 33.3024C214.076 30.8774 215.471 28.7962 217.268 27.0589C219.103 25.2853 221.231 23.9099 223.652 22.9327C226.074 21.9554 228.715 21.4668 231.577 21.4668C234.439 21.4668 237.08 21.9554 239.502 22.9327C241.96 23.9099 244.088 25.2853 245.886 27.0589C247.72 28.7962 249.133 30.8774 250.123 33.3024C251.114 35.6913 251.609 38.2973 251.609 41.1204C251.609 43.9436 251.114 46.5677 250.123 48.9928C249.133 51.3816 247.738 53.4809 245.941 55.2906C244.143 57.0641 242.015 58.4576 239.557 59.4711C237.135 60.4483 234.475 60.937 231.577 60.937C228.679 60.937 226.019 60.4483 223.597 59.4711C221.176 58.4576 219.066 57.0641 217.268 55.2906C215.471 53.4809 214.076 51.3816 213.086 48.9928C212.095 46.5677 211.6 43.9436 211.6 41.1204ZM218.479 41.1204C218.479 43.7264 219.029 46.061 220.13 48.1241C221.267 50.151 222.827 51.7435 224.808 52.9018C226.789 54.06 229.045 54.6391 231.577 54.6391C234.145 54.6391 236.402 54.06 238.346 52.9018C240.327 51.7435 241.868 50.151 242.969 48.1241C244.106 46.061 244.675 43.7264 244.675 41.1204C244.675 38.5144 244.125 36.198 243.024 34.1711C241.923 32.108 240.382 30.4973 238.401 29.3391C236.457 28.1809 234.182 27.6018 231.577 27.6018C229.045 27.6018 226.789 28.1809 224.808 29.3391C222.827 30.4973 221.267 32.108 220.13 34.1711C219.029 36.198 218.479 38.5144 218.479 41.1204Z" fill="#06678A"/>
<path d="M263.208 72.0668H257.209V35.1483H263.208V39.3288C264.125 37.8086 265.317 36.6323 266.785 35.7998C268.252 34.9312 269.94 34.4968 271.848 34.4968C274.049 34.4968 276.085 35.0217 277.957 36.0713C279.828 37.0847 281.332 38.5687 282.469 40.5232C283.607 42.4777 284.175 44.8485 284.175 47.6355C284.175 50.4224 283.607 52.7932 282.469 54.7477C281.332 56.7022 279.828 58.2043 277.957 59.2539C276.085 60.2674 274.049 60.7741 271.848 60.7741C269.94 60.7741 268.252 60.3578 266.785 59.5254C265.317 58.6567 264.125 57.4623 263.208 55.9421V72.0668ZM278.012 47.6355C278.012 45.138 277.259 43.2197 275.755 41.8805C274.251 40.5051 272.472 39.8174 270.417 39.8174C269.28 39.8174 268.161 40.1251 267.06 40.7404C265.959 41.3195 265.042 42.1882 264.308 43.3464C263.575 44.5046 263.208 45.9343 263.208 47.6355C263.208 49.3366 263.575 50.7663 264.308 51.9245C265.042 53.0827 265.959 53.9695 267.06 54.5848C268.161 55.1639 269.28 55.4535 270.417 55.4535C272.472 55.4535 274.251 54.7839 275.755 53.4447C277.259 52.0693 278.012 50.1329 278.012 47.6355Z" fill="#06678A"/>
<path d="M300.789 60.6655C298.184 60.6655 295.91 60.1226 293.965 59.0368C292.021 57.9509 290.516 56.4307 289.452 54.4762C288.388 52.5217 287.856 50.2415 287.856 47.6355C287.856 44.9933 288.388 42.713 289.452 40.7947C290.553 38.8402 292.094 37.32 294.075 36.2342C296.056 35.1483 298.386 34.6054 301.064 34.6054C305.063 34.6054 308.164 35.7456 310.365 38.0258C312.603 40.2699 313.722 43.3826 313.722 47.364C313.722 47.6898 313.704 48.0155 313.667 48.3413C313.667 48.6308 313.667 48.848 313.667 48.9928H293.965C294.185 51.1644 294.901 52.8475 296.111 54.0419C297.359 55.2363 299.01 55.8335 301.064 55.8335C304.293 55.8335 306.714 54.5124 308.329 51.8702L313.502 53.879C310.86 58.4033 306.623 60.6655 300.789 60.6655ZM301.009 39.0574C297.157 39.0574 294.864 41.0119 294.13 44.9209H307.228C307.118 43.1473 306.494 41.7358 305.357 40.6861C304.22 39.6003 302.77 39.0574 301.009 39.0574Z" fill="#06678A"/>
<path d="M335.685 44.9209C335.685 41.1928 334.126 39.3288 331.007 39.3288C329.319 39.3288 327.944 39.8355 326.88 40.849C325.852 41.8624 325.339 43.2197 325.339 44.9209V60.1226H319.395V35.1483H325.339V39.0031C326.953 36.0713 329.503 34.6054 332.988 34.6054C335.85 34.6054 338.033 35.4741 339.537 37.2114C341.041 38.9126 341.794 41.2652 341.794 44.2694V60.1226H335.685V44.9209Z" fill="#06678A"/>
<path d="M354.722 41.1204C354.722 43.7988 355.327 46.1515 356.538 48.1784C357.749 50.2053 359.345 51.7797 361.326 52.9018C363.344 53.9876 365.527 54.5305 367.875 54.5305C370.59 54.5305 372.938 54.0238 374.919 53.0104C376.937 51.9607 378.606 50.6577 379.927 49.1013V56.7565C378.35 58.0595 376.607 59.0548 374.699 59.7425C372.828 60.4302 370.48 60.7741 367.655 60.7741C364.83 60.7741 362.207 60.3036 359.785 59.3625C357.364 58.3853 355.236 57.028 353.401 55.2906C351.603 53.5533 350.191 51.4902 349.164 49.1013C348.173 46.6763 347.678 44.016 347.678 41.1204C347.678 38.2249 348.173 35.5827 349.164 33.1938C350.191 30.7688 351.603 28.6876 353.401 26.9503C355.236 25.2129 357.364 23.8737 359.785 22.9327C362.207 21.9554 364.83 21.4668 367.655 21.4668C370.48 21.4668 372.828 21.8106 374.699 22.4983C376.607 23.186 378.35 24.1814 379.927 25.4844V33.1395C378.606 31.5832 376.937 30.2983 374.919 29.2848C372.938 28.2352 370.59 27.7104 367.875 27.7104C365.527 27.7104 363.344 28.2714 361.326 29.3934C359.345 30.4792 357.749 32.0356 356.538 34.0625C355.327 36.0532 354.722 38.4058 354.722 41.1204Z" fill="#06678A"/>
<path d="M389.305 41.6634L386.884 37.5372C388.058 36.8495 389.544 36.1799 391.341 35.5284C393.139 34.8769 395.212 34.5511 397.56 34.5511C400.679 34.5511 403.229 35.2388 405.21 36.6142C407.228 37.9534 408.237 39.8536 408.237 42.3149V60.1226H402.403V56.7022C401.596 58.0414 400.403 59.0368 398.826 59.6883C397.248 60.3398 395.652 60.6655 394.038 60.6655C392.46 60.6655 390.993 60.3578 389.635 59.7425C388.278 59.1272 387.196 58.2224 386.388 57.028C385.581 55.8335 385.178 54.3857 385.178 52.6846C385.178 50.2596 386.04 48.3413 387.764 46.9297C389.525 45.4819 391.965 44.758 395.084 44.758C396.735 44.758 398.165 44.939 399.376 45.3009C400.587 45.6629 401.596 46.061 402.403 46.4953V43.455C402.403 41.9348 401.889 40.8671 400.862 40.2518C399.871 39.6365 398.587 39.3288 397.01 39.3288C395.212 39.3288 393.616 39.6184 392.222 40.1975C390.828 40.7766 389.855 41.2652 389.305 41.6634ZM391.176 52.3589C391.176 53.5895 391.617 54.5486 392.497 55.2363C393.414 55.924 394.552 56.2679 395.909 56.2679C397.67 56.2679 399.193 55.743 400.477 54.6934C401.761 53.6076 402.403 52.1236 402.403 50.2415V49.8614C400.642 49.029 398.679 48.6127 396.514 48.6127C394.643 48.6127 393.286 48.9566 392.442 49.6443C391.598 50.2958 391.176 51.2006 391.176 52.3589Z" fill="#06678A"/>
<path d="M431.455 44.9209C431.455 41.1928 429.896 39.3288 426.777 39.3288C425.09 39.3288 423.714 39.8355 422.65 40.849C421.623 41.8624 421.109 43.2197 421.109 44.9209V60.1226H415.166V35.1483H421.109V39.0031C422.723 36.0713 425.273 34.6054 428.759 34.6054C431.62 34.6054 433.803 35.4741 435.308 37.2114C436.812 38.9126 437.564 41.2652 437.564 44.2694V60.1226H431.455V44.9209Z" fill="#06678A"/>
<path d="M441.033 35.1483H447.582L454.186 51.273L460.79 35.1483H467.284L454.186 62.4571L441.033 35.1483Z" fill="#06678A"/>
<path d="M472.822 41.6634L470.401 37.5372C471.575 36.8495 473.061 36.1799 474.858 35.5284C476.656 34.8769 478.729 34.5511 481.077 34.5511C484.196 34.5511 486.745 35.2388 488.727 36.6142C490.745 37.9534 491.753 39.8536 491.753 42.3149V60.1226H485.92V56.7022C485.113 58.0414 483.92 59.0368 482.343 59.6883C480.765 60.3398 479.169 60.6655 477.555 60.6655C475.977 60.6655 474.51 60.3578 473.152 59.7425C471.795 59.1272 470.712 58.2224 469.905 57.028C469.098 55.8335 468.695 54.3857 468.695 52.6846C468.695 50.2596 469.557 48.3413 471.281 46.9297C473.042 45.4819 475.482 44.758 478.601 44.758C480.252 44.758 481.682 44.939 482.893 45.3009C484.104 45.6629 485.113 46.061 485.92 46.4953V43.455C485.92 41.9348 485.406 40.8671 484.379 40.2518C483.388 39.6365 482.104 39.3288 480.527 39.3288C478.729 39.3288 477.133 39.6184 475.739 40.1975C474.345 40.7766 473.372 41.2652 472.822 41.6634ZM474.693 52.3589C474.693 53.5895 475.133 54.5486 476.014 55.2363C476.931 55.924 478.069 56.2679 479.426 56.2679C481.187 56.2679 482.71 55.743 483.994 54.6934C485.278 53.6076 485.92 52.1236 485.92 50.2415V49.8614C484.159 49.029 482.196 48.6127 480.031 48.6127C478.16 48.6127 476.803 48.9566 475.959 49.6443C475.115 50.2958 474.693 51.2006 474.693 52.3589Z" fill="#06678A"/>
<path d="M499.838 51.9245C501.086 53.2637 502.315 54.2953 503.525 55.0192C504.773 55.7069 506.039 56.0507 507.323 56.0507C508.387 56.0507 509.212 55.8154 509.799 55.3449C510.423 54.8382 510.735 54.1867 510.735 53.3904C510.735 52.3046 510.203 51.454 509.139 50.8387C508.111 50.1872 506.754 49.5719 505.066 48.9928C503.929 48.5584 502.792 48.0517 501.654 47.4726C500.554 46.8573 499.636 46.0791 498.903 45.138C498.206 44.1608 497.857 42.9121 497.857 41.3919C497.857 39.8717 498.261 38.623 499.068 37.6458C499.875 36.6323 500.939 35.8722 502.26 35.3655C503.58 34.8588 505.011 34.6054 506.552 34.6054C508.607 34.6054 510.496 35.0217 512.221 35.8541C513.945 36.6866 515.321 37.7362 516.348 39.0031L513.046 42.4777C512.239 41.5367 511.23 40.7585 510.019 40.1432C508.845 39.4917 507.635 39.1659 506.387 39.1659C505.543 39.1659 504.846 39.3469 504.296 39.7089C503.745 40.0708 503.47 40.5956 503.47 41.2833C503.47 42.2244 503.984 42.9664 505.011 43.5093C506.075 44.0522 507.396 44.6313 508.974 45.2466C510.368 45.7895 511.652 46.3868 512.826 47.0383C514 47.6536 514.936 48.4317 515.633 49.3728C516.366 50.3139 516.733 51.5445 516.733 53.0646C516.733 55.4173 515.908 57.3175 514.257 58.7653C512.643 60.1769 510.46 60.8827 507.708 60.8827C505.103 60.8827 502.828 60.3217 500.884 59.1996C498.976 58.0776 497.472 56.7927 496.371 55.3449L499.838 51.9245Z" fill="#06678A"/>
</svg>
