<svg width="36" height="37" viewBox="0 0 36 37" fill="none" xmlns="http://www.w3.org/2000/svg">
<circle cx="18.5" cy="18" r="16.5" fill="#0A5069"/>
<path d="M23.674 11.533L23.78 11.6391L23.674 11.533L12.0334 23.1737C11.6359 23.571 11.6359 24.2138 12.0334 24.6111C12.2314 24.8093 12.492 24.9089 12.752 24.9089C13.012 24.9089 13.2715 24.8101 13.4706 24.6111L13.4707 24.6111L25.1113 12.9703C25.1113 12.9703 25.1113 12.9703 25.1113 12.9703C25.5088 12.573 25.5088 11.9303 25.1113 11.533C24.7139 11.1357 24.0713 11.1357 23.674 11.533Z" fill="white" stroke="white" stroke-width="0.3"/>
<path d="M13.4707 11.533L13.4707 11.533L25.1113 23.1737C25.1113 23.1737 25.1113 23.1737 25.1113 23.1737C25.5088 23.5711 25.5088 24.2138 25.1113 24.6111C24.9128 24.8103 24.6522 24.9089 24.3926 24.9089C24.1326 24.9089 23.8721 24.8092 23.674 24.6111L12.0334 12.9703C12.0334 12.9703 12.0334 12.9703 12.0334 12.9703C11.6359 12.573 11.6359 11.9303 12.0334 11.533L13.4707 11.533ZM13.4707 11.533C13.0732 11.1357 12.4307 11.1357 12.0334 11.533L13.4707 11.533Z" fill="white" stroke="white" stroke-width="0.3"/>
</svg>
