<svg width="14" height="10" viewBox="0 0 14 10" fill="none" xmlns="http://www.w3.org/2000/svg">
<path fill-rule="evenodd" clip-rule="evenodd" d="M-0.000976562 5.00063C-0.000976562 4.86802 0.0517018 4.74085 0.14547 4.64708C0.239238 4.55331 0.366415 4.50063 0.499023 4.50063H12.292L9.14502 1.35463C9.05114 1.26075 8.99839 1.13341 8.99839 1.00063C8.99839 0.867856 9.05114 0.740518 9.14502 0.646631C9.23891 0.552745 9.36625 0.5 9.49902 0.5C9.6318 0.5 9.75914 0.552745 9.85302 0.646631L13.853 4.64663C13.8996 4.69308 13.9365 4.74825 13.9617 4.809C13.9869 4.86974 13.9999 4.93486 13.9999 5.00063C13.9999 5.0664 13.9869 5.13152 13.9617 5.19226C13.9365 5.25301 13.8996 5.30819 13.853 5.35463L9.85302 9.35463C9.75914 9.44852 9.6318 9.50126 9.49902 9.50126C9.36625 9.50126 9.23891 9.44852 9.14502 9.35463C9.05114 9.26075 8.99839 9.13341 8.99839 9.00063C8.99839 8.86786 9.05114 8.74052 9.14502 8.64663L12.292 5.50063H0.499023C0.366415 5.50063 0.239238 5.44795 0.14547 5.35419C0.0517018 5.26042 -0.000976562 5.13324 -0.000976562 5.00063Z" fill="#6C01C3"/>
</svg>
