<svg width="30" height="30" viewBox="0 0 30 30" fill="none" xmlns="http://www.w3.org/2000/svg">
<rect width="30" height="30" rx="15" fill="#F1F5F9"/>
<path d="M23.3297 10C22.4072 10 21.6593 10.7164 21.6593 11.6001C21.6593 11.8218 21.7065 12.033 21.7916 12.225L18.2926 15.5769C18.0922 15.4954 17.8718 15.4502 17.6403 15.4502C17.4088 15.4502 17.1884 15.4954 16.988 15.5769L14.8979 13.5746C14.983 13.3826 15.0301 13.1715 15.0301 12.9497C15.0301 12.066 14.2822 11.3496 13.3597 11.3496C12.4373 11.3496 11.6894 12.066 11.6894 12.9497C11.6894 13.1714 11.7365 13.3826 11.8216 13.5746L8.32263 16.9265C8.12223 16.8449 7.90179 16.7998 7.67033 16.7998C6.74785 16.7998 6 17.5162 6 18.3999C6 19.2836 6.74785 20 7.67033 20C8.59281 20 9.34065 19.2836 9.34065 18.3999C9.34065 18.1782 9.29355 17.967 9.20845 17.775L12.7074 14.4232C12.9078 14.5047 13.1283 14.5498 13.3597 14.5498C13.5912 14.5498 13.8116 14.5047 14.012 14.4232L16.1022 16.4255C16.0171 16.6174 15.97 16.8286 15.97 17.0503C15.97 17.934 16.7178 18.6504 17.6403 18.6504C18.5628 18.6504 19.3106 17.934 19.3106 17.0503C19.3106 16.8286 19.2635 16.6174 19.1784 16.4255L22.6774 13.0735C22.8778 13.1551 23.0982 13.2002 23.3297 13.2002C24.2522 13.2002 25 12.4838 25 11.6001C25 10.7164 24.2522 10 23.3297 10Z" fill="url(#paint0_linear_303:19362)"/>
<defs>
<linearGradient id="paint0_linear_303:19362" x1="5.59383" y1="10.0304" x2="26.0611" y2="13.0525" gradientUnits="userSpaceOnUse">
<stop stop-color="#6C01C3"/>
<stop offset="1" stop-color="#901CEE"/>
</linearGradient>
</defs>
</svg>
