<svg width="17" height="16" viewBox="0 0 17 16" fill="none" xmlns="http://www.w3.org/2000/svg">
<path d="M3.40464 4.44363C3.11979 4.44364 2.84308 4.34488 2.62288 4.16417C2.40268 3.98347 2.25195 3.73201 2.19637 3.45263C2.14079 3.17325 2.1838 2.88325 2.31808 2.63203C2.45235 2.38081 2.66957 2.18392 2.93274 2.0749C3.19591 1.96589 3.48873 1.95149 3.76132 2.03418C4.03391 2.11686 4.26939 2.2915 4.42765 2.52834C4.58591 2.76518 4.65716 3.04957 4.62924 3.33305C4.60133 3.61654 4.47598 3.88157 4.27457 4.08299C4.16419 4.19722 4.03192 4.28803 3.88566 4.35C3.7394 4.41196 3.58215 4.44381 3.42331 4.44363H3.40464ZM1.42481 9.23123H1.42414C1.13929 9.23124 0.863244 9.13248 0.643045 8.95177C0.422847 8.77107 0.272116 8.51961 0.216537 8.24023C0.160958 7.96086 0.203969 7.67085 0.338241 7.41963C0.472513 7.16841 0.689738 6.97152 0.952904 6.8625C1.21607 6.75349 1.5089 6.7391 1.78148 6.82178C2.05407 6.90446 2.28956 7.0791 2.44782 7.31594C2.60608 7.55278 2.67732 7.83717 2.64941 8.12066C2.62149 8.40414 2.49615 8.66917 2.29473 8.87059C2.18428 8.98491 2.0519 9.07576 1.90552 9.13773C1.75914 9.19969 1.60176 9.2315 1.4428 9.23123H1.42214H1.42481ZM8.19157 2.46246C7.90672 2.46247 7.63068 2.36371 7.41048 2.18301C7.19028 2.0023 7.03955 1.75084 6.98397 1.47146C6.92839 1.19209 6.9714 0.902081 7.10568 0.65086C7.23995 0.39964 7.45717 0.202748 7.72034 0.0937336C7.98351 -0.015281 8.27633 -0.0296735 8.54892 0.0530084C8.82151 0.13569 9.05699 0.310331 9.21525 0.547173C9.37351 0.784016 9.44476 1.06841 9.41684 1.35189C9.38893 1.63537 9.26358 1.9004 9.06217 2.10182C8.95179 2.21606 8.81952 2.30687 8.67326 2.36883C8.527 2.43079 8.36975 2.46264 8.21091 2.46246H8.19157ZM3.40464 14.0195C3.11979 14.0195 2.84308 13.9207 2.62288 13.74C2.40268 13.5593 2.25195 13.3079 2.19637 13.0285C2.14079 12.7491 2.1838 12.4591 2.31808 12.2079C2.45235 11.9567 2.66957 11.7598 2.93274 11.6508C3.19591 11.5418 3.48873 11.5274 3.76132 11.61C4.03391 11.6927 4.26939 11.8674 4.42765 12.1042C4.58591 12.3411 4.65716 12.6254 4.62924 12.9089C4.60133 13.1924 4.47598 13.4574 4.27457 13.6589C4.16436 13.7731 4.03222 13.864 3.88606 13.9259C3.7399 13.9879 3.58273 14.0197 3.42397 14.0195H3.40331H3.40464ZM12.9798 4.75094C12.7751 4.7552 12.5717 4.71856 12.3813 4.64317C12.191 4.56779 12.0176 4.45516 11.8713 4.31191C11.725 4.16865 11.6088 3.99764 11.5295 3.80889C11.4501 3.62015 11.4093 3.41747 11.4093 3.21273C11.4093 3.00799 11.4501 2.80531 11.5295 2.61657C11.6088 2.42783 11.725 2.25682 11.8713 2.11356C12.0176 1.9703 12.191 1.85768 12.3813 1.78229C12.5717 1.7069 12.7751 1.67027 12.9798 1.67453C13.3823 1.6829 13.7654 1.84865 14.047 2.1362C14.3286 2.42376 14.4864 2.81023 14.4864 3.21273C14.4864 3.61523 14.3286 4.0017 14.047 4.28926C13.7654 4.57682 13.3823 4.74256 12.9798 4.75094ZM8.19157 16C7.90672 16 7.63068 15.9012 7.41048 15.7205C7.19028 15.5398 7.03955 15.2884 6.98397 15.009C6.92839 14.7296 6.9714 14.4396 7.10568 14.1884C7.23995 13.9372 7.45717 13.7403 7.72034 13.6313C7.98351 13.5223 8.27633 13.5079 8.54892 13.5905C8.82151 13.6732 9.05699 13.8479 9.21525 14.0847C9.37351 14.3216 9.44476 14.6059 9.41684 14.8894C9.38893 15.1729 9.26358 15.4379 9.06217 15.6394C8.95179 15.7536 8.81952 15.8444 8.67326 15.9064C8.527 15.9683 8.36975 16.0002 8.21091 16H8.19157ZM14.961 9.84651H14.929C14.4291 9.84651 13.9771 9.64053 13.6538 9.30856L13.6531 9.30789C13.3205 8.97258 13.1145 8.51062 13.1145 8.00067C13.1145 7.49071 13.3198 7.02875 13.6531 6.69278C13.8188 6.52208 14.0172 6.38644 14.2364 6.29391C14.4556 6.20138 14.6911 6.15385 14.929 6.15415H14.9623H14.9603H14.9923C15.4923 6.15415 15.9436 6.36014 16.2676 6.69211L16.2682 6.69278C16.6009 7.02808 16.8069 7.49004 16.8069 8C16.8069 8.50996 16.6015 8.97192 16.2682 9.30789C16.1025 9.47876 15.904 9.61455 15.6847 9.70719C15.4654 9.79984 15.2297 9.84744 14.9917 9.84718H14.959H14.9603L14.961 9.84651ZM12.9805 14.9414H12.9472C12.6688 14.9417 12.3933 14.8857 12.1371 14.7767C11.881 14.6678 11.6495 14.5082 11.4566 14.3075L11.456 14.3068C11.0667 13.9175 10.826 13.3795 10.826 12.7849C10.826 12.1903 11.0667 11.653 11.456 11.2631C11.6492 11.0635 11.8807 10.9049 12.1365 10.7967C12.3924 10.6885 12.6674 10.6328 12.9452 10.6331H12.9812H12.9792H13.0072C13.5918 10.6331 14.1204 10.8744 14.4984 11.2624L14.499 11.2631C14.891 11.651 15.1337 12.1896 15.1337 12.7849C15.1337 13.3802 14.891 13.9182 14.499 14.3061C14.3059 14.5072 14.074 14.6672 13.8174 14.7764C13.5608 14.8855 13.2847 14.9417 13.0058 14.9414H12.9792H12.9805Z" fill="white"/>
</svg>
